<svg xmlns="http://www.w3.org/2000/svg" xmlns:xlink="http://www.w3.org/1999/xlink" width="600" height="400" viewBox="0 0 2400 1600">
<defs>
  <clipPath id="clip810">
    <rect x="0" y="0" width="2400" height="1600"></rect>
  </clipPath>
</defs>
<path clip-path="url(#clip810)" d="
M0 1600 L2400 1600 L2400 0 L0 0  Z
  " fill="#ffffff" fill-rule="evenodd" fill-opacity="1"></path>
<defs>
  <clipPath id="clip811">
    <rect x="480" y="0" width="1681" height="1600"></rect>
  </clipPath>
</defs>
<defs>
  <clipPath id="clip812">
    <rect x="175" y="47" width="2178" height="1377"></rect>
  </clipPath>
</defs>
<path clip-path="url(#clip810)" d="
M175.445 1423.18 L2352.76 1423.18 L2352.76 47.2441 L175.445 47.2441  Z
  " fill="#ffffff" fill-rule="evenodd" fill-opacity="1"></path>
<polyline clip-path="url(#clip812)" style="stroke:#000000; stroke-linecap:round; stroke-linejoin:round; stroke-width:2; stroke-opacity:0.1; fill:none" points="
  478.933,1423.18 478.933,47.2441 
  "></polyline>
<polyline clip-path="url(#clip812)" style="stroke:#000000; stroke-linecap:round; stroke-linejoin:round; stroke-width:2; stroke-opacity:0.1; fill:none" points="
  871.517,1423.18 871.517,47.2441 
  "></polyline>
<polyline clip-path="url(#clip812)" style="stroke:#000000; stroke-linecap:round; stroke-linejoin:round; stroke-width:2; stroke-opacity:0.1; fill:none" points="
  1264.1,1423.18 1264.1,47.2441 
  "></polyline>
<polyline clip-path="url(#clip812)" style="stroke:#000000; stroke-linecap:round; stroke-linejoin:round; stroke-width:2; stroke-opacity:0.1; fill:none" points="
  1656.68,1423.18 1656.68,47.2441 
  "></polyline>
<polyline clip-path="url(#clip812)" style="stroke:#000000; stroke-linecap:round; stroke-linejoin:round; stroke-width:2; stroke-opacity:0.1; fill:none" points="
  2049.27,1423.18 2049.27,47.2441 
  "></polyline>
<polyline clip-path="url(#clip810)" style="stroke:#000000; stroke-linecap:round; stroke-linejoin:round; stroke-width:4; stroke-opacity:1; fill:none" points="
  175.445,1423.18 2352.76,1423.18 
  "></polyline>
<polyline clip-path="url(#clip810)" style="stroke:#000000; stroke-linecap:round; stroke-linejoin:round; stroke-width:4; stroke-opacity:1; fill:none" points="
  175.445,47.2441 2352.76,47.2441 
  "></polyline>
<polyline clip-path="url(#clip810)" style="stroke:#000000; stroke-linecap:round; stroke-linejoin:round; stroke-width:4; stroke-opacity:1; fill:none" points="
  478.933,1423.18 478.933,1404.28 
  "></polyline>
<polyline clip-path="url(#clip810)" style="stroke:#000000; stroke-linecap:round; stroke-linejoin:round; stroke-width:4; stroke-opacity:1; fill:none" points="
  871.517,1423.18 871.517,1404.28 
  "></polyline>
<polyline clip-path="url(#clip810)" style="stroke:#000000; stroke-linecap:round; stroke-linejoin:round; stroke-width:4; stroke-opacity:1; fill:none" points="
  1264.1,1423.18 1264.1,1404.28 
  "></polyline>
<polyline clip-path="url(#clip810)" style="stroke:#000000; stroke-linecap:round; stroke-linejoin:round; stroke-width:4; stroke-opacity:1; fill:none" points="
  1656.68,1423.18 1656.68,1404.28 
  "></polyline>
<polyline clip-path="url(#clip810)" style="stroke:#000000; stroke-linecap:round; stroke-linejoin:round; stroke-width:4; stroke-opacity:1; fill:none" points="
  2049.27,1423.18 2049.27,1404.28 
  "></polyline>
<path clip-path="url(#clip810)" d="M425.958 1468.75 L455.634 1468.75 L455.634 1472.69 L425.958 1472.69 L425.958 1468.75 Z" fill="#000000" fill-rule="evenodd" fill-opacity="1"></path><path clip-path="url(#clip810)" d="M469.754 1481.64 L486.074 1481.64 L486.074 1485.58 L464.129 1485.58 L464.129 1481.64 Q466.792 1478.89 471.375 1474.26 Q475.981 1469.61 477.162 1468.27 Q479.407 1465.74 480.287 1464.01 Q481.19 1462.25 481.19 1460.56 Q481.19 1457.8 479.245 1456.07 Q477.324 1454.33 474.222 1454.33 Q472.023 1454.33 469.569 1455.09 Q467.139 1455.86 464.361 1457.41 L464.361 1452.69 Q467.185 1451.55 469.639 1450.97 Q472.092 1450.39 474.129 1450.39 Q479.5 1450.39 482.694 1453.08 Q485.889 1455.77 485.889 1460.26 Q485.889 1462.39 485.078 1464.31 Q484.291 1466.2 482.185 1468.8 Q481.606 1469.47 478.504 1472.69 Q475.403 1475.88 469.754 1481.64 Z" fill="#000000" fill-rule="evenodd" fill-opacity="1"></path><path clip-path="url(#clip810)" d="M495.889 1479.7 L500.773 1479.7 L500.773 1485.58 L495.889 1485.58 L495.889 1479.7 Z" fill="#000000" fill-rule="evenodd" fill-opacity="1"></path><path clip-path="url(#clip810)" d="M511.004 1451.02 L529.361 1451.02 L529.361 1454.96 L515.287 1454.96 L515.287 1463.43 Q516.305 1463.08 517.324 1462.92 Q518.342 1462.73 519.361 1462.73 Q525.148 1462.73 528.527 1465.9 Q531.907 1469.08 531.907 1474.49 Q531.907 1480.07 528.435 1483.17 Q524.963 1486.25 518.643 1486.25 Q516.467 1486.25 514.199 1485.88 Q511.953 1485.51 509.546 1484.77 L509.546 1480.07 Q511.629 1481.2 513.851 1481.76 Q516.074 1482.32 518.55 1482.32 Q522.555 1482.32 524.893 1480.21 Q527.231 1478.1 527.231 1474.49 Q527.231 1470.88 524.893 1468.77 Q522.555 1466.67 518.55 1466.67 Q516.676 1466.67 514.801 1467.08 Q512.949 1467.5 511.004 1468.38 L511.004 1451.02 Z" fill="#000000" fill-rule="evenodd" fill-opacity="1"></path><path clip-path="url(#clip810)" d="M848.901 1454.1 Q845.29 1454.1 843.461 1457.66 Q841.656 1461.2 841.656 1468.33 Q841.656 1475.44 843.461 1479.01 Q845.29 1482.55 848.901 1482.55 Q852.535 1482.55 854.341 1479.01 Q856.169 1475.44 856.169 1468.33 Q856.169 1461.2 854.341 1457.66 Q852.535 1454.1 848.901 1454.1 M848.901 1450.39 Q854.711 1450.39 857.767 1455 Q860.845 1459.58 860.845 1468.33 Q860.845 1477.06 857.767 1481.67 Q854.711 1486.25 848.901 1486.25 Q843.091 1486.25 840.012 1481.67 Q836.957 1477.06 836.957 1468.33 Q836.957 1459.58 840.012 1455 Q843.091 1450.39 848.901 1450.39 Z" fill="#000000" fill-rule="evenodd" fill-opacity="1"></path><path clip-path="url(#clip810)" d="M869.063 1479.7 L873.947 1479.7 L873.947 1485.58 L869.063 1485.58 L869.063 1479.7 Z" fill="#000000" fill-rule="evenodd" fill-opacity="1"></path><path clip-path="url(#clip810)" d="M894.132 1454.1 Q890.521 1454.1 888.692 1457.66 Q886.887 1461.2 886.887 1468.33 Q886.887 1475.44 888.692 1479.01 Q890.521 1482.55 894.132 1482.55 Q897.766 1482.55 899.572 1479.01 Q901.401 1475.44 901.401 1468.33 Q901.401 1461.2 899.572 1457.66 Q897.766 1454.1 894.132 1454.1 M894.132 1450.39 Q899.942 1450.39 902.998 1455 Q906.077 1459.58 906.077 1468.33 Q906.077 1477.06 902.998 1481.67 Q899.942 1486.25 894.132 1486.25 Q888.322 1486.25 885.243 1481.67 Q882.188 1477.06 882.188 1468.33 Q882.188 1459.58 885.243 1455 Q888.322 1450.39 894.132 1450.39 Z" fill="#000000" fill-rule="evenodd" fill-opacity="1"></path><path clip-path="url(#clip810)" d="M1235.84 1481.64 L1252.16 1481.64 L1252.16 1485.58 L1230.21 1485.58 L1230.21 1481.64 Q1232.87 1478.89 1237.46 1474.26 Q1242.06 1469.61 1243.24 1468.27 Q1245.49 1465.74 1246.37 1464.01 Q1247.27 1462.25 1247.27 1460.56 Q1247.27 1457.8 1245.33 1456.07 Q1243.41 1454.33 1240.3 1454.33 Q1238.11 1454.33 1235.65 1455.09 Q1233.22 1455.86 1230.44 1457.41 L1230.44 1452.69 Q1233.27 1451.55 1235.72 1450.97 Q1238.17 1450.39 1240.21 1450.39 Q1245.58 1450.39 1248.78 1453.08 Q1251.97 1455.77 1251.97 1460.26 Q1251.97 1462.39 1251.16 1464.31 Q1250.37 1466.2 1248.27 1468.8 Q1247.69 1469.47 1244.59 1472.69 Q1241.48 1475.88 1235.84 1481.64 Z" fill="#000000" fill-rule="evenodd" fill-opacity="1"></path><path clip-path="url(#clip810)" d="M1261.97 1479.7 L1266.86 1479.7 L1266.86 1485.58 L1261.97 1485.58 L1261.97 1479.7 Z" fill="#000000" fill-rule="evenodd" fill-opacity="1"></path><path clip-path="url(#clip810)" d="M1277.09 1451.02 L1295.44 1451.02 L1295.44 1454.96 L1281.37 1454.96 L1281.37 1463.43 Q1282.39 1463.08 1283.41 1462.92 Q1284.42 1462.73 1285.44 1462.73 Q1291.23 1462.73 1294.61 1465.9 Q1297.99 1469.08 1297.99 1474.49 Q1297.99 1480.07 1294.52 1483.17 Q1291.04 1486.25 1284.73 1486.25 Q1282.55 1486.25 1280.28 1485.88 Q1278.04 1485.51 1275.63 1484.77 L1275.63 1480.07 Q1277.71 1481.2 1279.93 1481.76 Q1282.16 1482.32 1284.63 1482.32 Q1288.64 1482.32 1290.98 1480.21 Q1293.31 1478.1 1293.31 1474.49 Q1293.31 1470.88 1290.98 1468.77 Q1288.64 1466.67 1284.63 1466.67 Q1282.76 1466.67 1280.88 1467.08 Q1279.03 1467.5 1277.09 1468.38 L1277.09 1451.02 Z" fill="#000000" fill-rule="evenodd" fill-opacity="1"></path><path clip-path="url(#clip810)" d="M1623.85 1451.02 L1642.21 1451.02 L1642.21 1454.96 L1628.13 1454.96 L1628.13 1463.43 Q1629.15 1463.08 1630.17 1462.92 Q1631.19 1462.73 1632.21 1462.73 Q1637.99 1462.73 1641.37 1465.9 Q1644.75 1469.08 1644.75 1474.49 Q1644.75 1480.07 1641.28 1483.17 Q1637.81 1486.25 1631.49 1486.25 Q1629.31 1486.25 1627.04 1485.88 Q1624.8 1485.51 1622.39 1484.77 L1622.39 1480.07 Q1624.47 1481.2 1626.7 1481.76 Q1628.92 1482.32 1631.4 1482.32 Q1635.4 1482.32 1637.74 1480.21 Q1640.08 1478.1 1640.08 1474.49 Q1640.08 1470.88 1637.74 1468.77 Q1635.4 1466.67 1631.4 1466.67 Q1629.52 1466.67 1627.65 1467.08 Q1625.79 1467.5 1623.85 1468.38 L1623.85 1451.02 Z" fill="#000000" fill-rule="evenodd" fill-opacity="1"></path><path clip-path="url(#clip810)" d="M1653.96 1479.7 L1658.85 1479.7 L1658.85 1485.58 L1653.96 1485.58 L1653.96 1479.7 Z" fill="#000000" fill-rule="evenodd" fill-opacity="1"></path><path clip-path="url(#clip810)" d="M1679.03 1454.1 Q1675.42 1454.1 1673.59 1457.66 Q1671.79 1461.2 1671.79 1468.33 Q1671.79 1475.44 1673.59 1479.01 Q1675.42 1482.55 1679.03 1482.55 Q1682.67 1482.55 1684.47 1479.01 Q1686.3 1475.44 1686.3 1468.33 Q1686.3 1461.2 1684.47 1457.66 Q1682.67 1454.1 1679.03 1454.1 M1679.03 1450.39 Q1684.84 1450.39 1687.9 1455 Q1690.98 1459.58 1690.98 1468.33 Q1690.98 1477.06 1687.9 1481.67 Q1684.84 1486.25 1679.03 1486.25 Q1673.22 1486.25 1670.15 1481.67 Q1667.09 1477.06 1667.09 1468.33 Q1667.09 1459.58 1670.15 1455 Q1673.22 1450.39 1679.03 1450.39 Z" fill="#000000" fill-rule="evenodd" fill-opacity="1"></path><path clip-path="url(#clip810)" d="M2015.59 1451.02 L2037.81 1451.02 L2037.81 1453.01 L2025.26 1485.58 L2020.38 1485.58 L2032.19 1454.96 L2015.59 1454.96 L2015.59 1451.02 Z" fill="#000000" fill-rule="evenodd" fill-opacity="1"></path><path clip-path="url(#clip810)" d="M2046.93 1479.7 L2051.81 1479.7 L2051.81 1485.58 L2046.93 1485.58 L2046.93 1479.7 Z" fill="#000000" fill-rule="evenodd" fill-opacity="1"></path><path clip-path="url(#clip810)" d="M2062.05 1451.02 L2080.4 1451.02 L2080.4 1454.96 L2066.33 1454.96 L2066.33 1463.43 Q2067.35 1463.08 2068.37 1462.92 Q2069.38 1462.73 2070.4 1462.73 Q2076.19 1462.73 2079.57 1465.9 Q2082.95 1469.08 2082.95 1474.49 Q2082.95 1480.07 2079.48 1483.17 Q2076 1486.25 2069.69 1486.25 Q2067.51 1486.25 2065.24 1485.88 Q2063 1485.51 2060.59 1484.77 L2060.59 1480.07 Q2062.67 1481.2 2064.89 1481.76 Q2067.12 1482.32 2069.59 1482.32 Q2073.6 1482.32 2075.93 1480.21 Q2078.27 1478.1 2078.27 1474.49 Q2078.27 1470.88 2075.93 1468.77 Q2073.6 1466.67 2069.59 1466.67 Q2067.72 1466.67 2065.84 1467.08 Q2063.99 1467.5 2062.05 1468.38 L2062.05 1451.02 Z" fill="#000000" fill-rule="evenodd" fill-opacity="1"></path><path clip-path="url(#clip810)" d="M1120.21 1530.26 Q1120.21 1532.06 1119.08 1533.09 Q1117.96 1534.09 1116.67 1534.09 Q1115.44 1534.09 1114.8 1533.38 Q1114.16 1532.67 1114.16 1531.77 Q1114.16 1530.55 1115.06 1529.48 Q1115.96 1528.42 1117.31 1528.2 Q1115.99 1527.36 1114.03 1527.36 Q1112.74 1527.36 1111.61 1528.03 Q1110.52 1528.71 1109.84 1529.58 Q1109.2 1530.45 1108.62 1531.71 Q1108.07 1532.93 1107.84 1533.67 Q1107.65 1534.38 1107.49 1535.15 L1105.23 1544.17 Q1104.14 1548.45 1104.14 1549.97 Q1104.14 1551.83 1105.04 1553.09 Q1105.94 1554.31 1107.75 1554.31 Q1108.46 1554.31 1109.26 1554.12 Q1110.07 1553.9 1111.1 1553.32 Q1112.16 1552.7 1113.09 1551.8 Q1114.06 1550.87 1114.99 1549.29 Q1115.93 1547.71 1116.54 1545.68 Q1116.73 1544.97 1117.38 1544.97 Q1118.18 1544.97 1118.18 1545.62 Q1118.18 1546.17 1117.73 1547.33 Q1117.31 1548.45 1116.38 1549.93 Q1115.48 1551.38 1114.28 1552.7 Q1113.09 1553.99 1111.32 1554.89 Q1109.55 1555.8 1107.62 1555.8 Q1104.85 1555.8 1103.01 1554.31 Q1101.18 1552.83 1100.5 1550.77 Q1100.34 1551.06 1100.11 1551.45 Q1099.89 1551.83 1099.21 1552.7 Q1098.57 1553.54 1097.83 1554.19 Q1097.09 1554.8 1095.93 1555.28 Q1094.8 1555.8 1093.58 1555.8 Q1092.03 1555.8 1090.65 1555.35 Q1089.29 1554.89 1088.33 1553.86 Q1087.36 1552.83 1087.36 1551.42 Q1087.36 1549.84 1088.42 1548.74 Q1089.52 1547.62 1091 1547.62 Q1091.93 1547.62 1092.67 1548.16 Q1093.45 1548.71 1093.45 1549.9 Q1093.45 1551.22 1092.55 1552.22 Q1091.64 1553.22 1090.36 1553.48 Q1091.68 1554.31 1093.64 1554.31 Q1095.77 1554.31 1097.44 1552.45 Q1099.12 1550.58 1099.92 1547.45 Q1101.92 1539.95 1102.69 1536.6 Q1103.46 1533.22 1103.46 1531.77 Q1103.46 1530.42 1103.11 1529.48 Q1102.75 1528.55 1102.14 1528.13 Q1101.56 1527.68 1101.02 1527.52 Q1100.5 1527.36 1099.92 1527.36 Q1098.95 1527.36 1097.86 1527.74 Q1096.8 1528.13 1095.51 1529.03 Q1094.25 1529.9 1093.06 1531.71 Q1091.87 1533.51 1091.06 1535.99 Q1090.9 1536.73 1090.19 1536.73 Q1089.42 1536.7 1089.42 1536.05 Q1089.42 1535.51 1089.84 1534.38 Q1090.29 1533.22 1091.19 1531.77 Q1092.13 1530.32 1093.32 1529.03 Q1094.54 1527.71 1096.31 1526.81 Q1098.12 1525.91 1100.05 1525.91 Q1100.92 1525.91 1101.76 1526.1 Q1102.63 1526.26 1103.66 1526.75 Q1104.72 1527.23 1105.65 1528.29 Q1106.59 1529.36 1107.17 1530.9 Q1107.55 1530.16 1108.07 1529.45 Q1108.62 1528.74 1109.45 1527.87 Q1110.32 1526.97 1111.51 1526.46 Q1112.74 1525.91 1114.09 1525.91 Q1115.41 1525.91 1116.7 1526.26 Q1117.99 1526.59 1119.08 1527.65 Q1120.21 1528.68 1120.21 1530.26 Z" fill="#000000" fill-rule="evenodd" fill-opacity="1"></path><path clip-path="url(#clip810)" d="M1186.56 1537.63 Q1186.94 1538.02 1186.94 1538.57 Q1186.94 1539.11 1186.56 1539.5 Q1186.17 1539.89 1185.62 1539.89 L1144.34 1539.89 Q1143.79 1539.89 1143.4 1539.5 Q1143.02 1539.11 1143.02 1538.57 Q1143.02 1538.02 1143.4 1537.63 Q1143.79 1537.25 1144.34 1537.25 L1185.62 1537.25 Q1186.17 1537.25 1186.56 1537.63 Z" fill="#000000" fill-rule="evenodd" fill-opacity="1"></path><path clip-path="url(#clip810)" d="M1212.13 1565.81 Q1215.64 1565.81 1216.45 1565.36 Q1217.29 1564.94 1217.29 1562.85 L1217.29 1531.96 Q1217.29 1529.77 1216.45 1529.23 Q1215.64 1528.68 1212.13 1528.68 L1212.13 1526.62 L1221.63 1525.91 L1221.63 1530.26 Q1225.59 1525.91 1230.88 1525.91 Q1236.48 1525.91 1240.57 1530.26 Q1244.66 1534.6 1244.66 1540.82 Q1244.66 1547.1 1240.31 1551.45 Q1235.97 1555.8 1229.94 1555.8 Q1226.66 1555.8 1224.44 1554.12 Q1222.25 1552.41 1221.83 1551.16 L1221.83 1551.77 L1221.83 1562.85 Q1221.83 1564.97 1222.66 1565.39 Q1223.5 1565.81 1226.98 1565.81 L1226.98 1567.84 Q1220.06 1567.65 1219.54 1567.65 Q1218.9 1567.65 1212.13 1567.84 L1212.13 1565.81 M1221.83 1547.55 Q1221.83 1548.55 1221.96 1548.9 Q1222.12 1549.26 1222.76 1550.32 Q1225.37 1554.31 1229.62 1554.31 Q1229.65 1554.31 1229.69 1554.31 Q1233.45 1554.31 1236.32 1550.48 Q1239.19 1546.62 1239.19 1540.82 Q1239.19 1535.28 1236.58 1531.42 Q1233.97 1527.55 1230.36 1527.55 Q1227.78 1527.55 1225.53 1528.94 Q1223.28 1530.32 1221.83 1532.83 L1221.83 1547.55 Z" fill="#000000" fill-rule="evenodd" fill-opacity="1"></path><path clip-path="url(#clip810)" d="M1257.73 1551.51 Q1253.39 1547.2 1253.39 1540.95 Q1253.39 1534.67 1257.64 1530.1 Q1261.92 1525.49 1268.04 1525.49 Q1274.03 1525.49 1278.31 1530.06 Q1282.63 1534.6 1282.63 1540.95 Q1282.63 1547.16 1278.28 1551.48 Q1273.97 1555.8 1267.97 1555.8 Q1262.11 1555.8 1257.73 1551.51 M1258.86 1540.4 Q1258.86 1546.81 1260.54 1549.71 Q1263.11 1554.12 1268.04 1554.12 Q1270.49 1554.12 1272.52 1552.8 Q1274.58 1551.48 1275.7 1549.26 Q1277.15 1546.36 1277.15 1540.4 Q1277.15 1534.06 1275.41 1531.26 Q1272.84 1526.97 1267.97 1526.97 Q1265.85 1526.97 1263.76 1528.1 Q1261.69 1529.19 1260.44 1531.38 Q1258.86 1534.28 1258.86 1540.4 Z" fill="#000000" fill-rule="evenodd" fill-opacity="1"></path><path clip-path="url(#clip810)" d="M1286.05 1554.19 L1286.05 1545.49 Q1286.05 1544.75 1286.08 1544.49 Q1286.11 1544.23 1286.31 1544.04 Q1286.5 1543.85 1286.89 1543.85 Q1287.34 1543.85 1287.5 1544.04 Q1287.69 1544.23 1287.82 1544.97 Q1288.82 1549.52 1290.94 1551.93 Q1293.1 1554.31 1297 1554.31 Q1300.7 1554.31 1302.57 1552.67 Q1304.44 1551.03 1304.44 1548.32 Q1304.44 1543.49 1297.58 1542.27 Q1293.62 1541.46 1291.98 1540.95 Q1290.33 1540.4 1288.88 1539.21 Q1286.05 1536.89 1286.05 1533.61 Q1286.05 1530.32 1288.53 1527.91 Q1291.04 1525.49 1296.58 1525.49 Q1300.28 1525.49 1302.8 1527.36 Q1303.54 1526.78 1303.92 1526.3 Q1304.79 1525.49 1305.24 1525.49 Q1305.76 1525.49 1305.86 1525.84 Q1305.95 1526.17 1305.95 1527.1 L1305.95 1533.73 Q1305.95 1534.48 1305.92 1534.73 Q1305.89 1534.99 1305.7 1535.18 Q1305.5 1535.35 1305.08 1535.35 Q1304.34 1535.35 1304.31 1534.73 Q1303.8 1526.75 1296.58 1526.75 Q1292.68 1526.75 1290.94 1528.26 Q1289.21 1529.74 1289.21 1531.77 Q1289.21 1532.9 1289.72 1533.77 Q1290.27 1534.6 1290.94 1535.12 Q1291.65 1535.6 1292.94 1536.09 Q1294.23 1536.54 1295 1536.7 Q1295.81 1536.86 1297.32 1537.18 Q1302.6 1538.18 1304.83 1540.34 Q1307.6 1543.11 1307.6 1546.62 Q1307.6 1550.51 1304.95 1553.16 Q1302.31 1555.8 1297 1555.8 Q1292.72 1555.8 1289.72 1552.93 Q1289.33 1553.32 1289.04 1553.67 Q1288.75 1553.99 1288.63 1554.12 Q1288.53 1554.25 1288.5 1554.35 Q1288.47 1554.41 1288.4 1554.48 Q1287.08 1555.8 1286.76 1555.8 Q1286.24 1555.8 1286.15 1555.44 Q1286.05 1555.12 1286.05 1554.19 Z" fill="#000000" fill-rule="evenodd" fill-opacity="1"></path><path clip-path="url(#clip810)" d="M1310.18 1555.06 L1310.18 1553.03 Q1313.69 1553.03 1314.49 1552.61 Q1315.3 1552.16 1315.3 1550.03 L1315.3 1532.29 Q1315.3 1529.84 1314.46 1529.26 Q1313.65 1528.68 1310.43 1528.68 L1310.43 1526.62 L1319.64 1525.91 L1319.64 1550.1 Q1319.64 1552.06 1320.35 1552.54 Q1321.06 1553.03 1324.28 1553.03 L1324.28 1555.06 Q1317.55 1554.86 1317.42 1554.86 Q1316.52 1554.86 1310.18 1555.06 M1312.95 1514.41 Q1312.95 1513.09 1313.94 1512.03 Q1314.97 1510.93 1316.42 1510.93 Q1317.87 1510.93 1318.9 1511.93 Q1319.93 1512.9 1319.93 1514.44 Q1319.93 1515.96 1318.9 1516.96 Q1317.87 1517.92 1316.42 1517.92 Q1314.91 1517.92 1313.91 1516.86 Q1312.95 1515.8 1312.95 1514.41 Z" fill="#000000" fill-rule="evenodd" fill-opacity="1"></path><path clip-path="url(#clip810)" d="M1328.79 1528.68 L1328.79 1527.23 Q1331.82 1527.1 1333.81 1524.98 Q1335.84 1522.82 1336.52 1520.18 Q1337.23 1517.54 1337.29 1514.48 L1338.94 1514.48 L1338.94 1526.62 L1348.37 1526.62 L1348.37 1528.68 L1338.94 1528.68 L1338.94 1547 Q1338.94 1554.12 1343.38 1554.12 Q1345.28 1554.12 1346.54 1552.19 Q1347.79 1550.22 1347.79 1546.75 L1347.79 1543.11 L1349.43 1543.11 L1349.43 1546.87 Q1349.43 1550.45 1347.79 1553.12 Q1346.15 1555.8 1342.9 1555.8 Q1341.7 1555.8 1340.51 1555.47 Q1339.35 1555.18 1337.81 1554.41 Q1336.29 1553.61 1335.33 1551.67 Q1334.39 1549.71 1334.39 1546.87 L1334.39 1528.68 L1328.79 1528.68 Z" fill="#000000" fill-rule="evenodd" fill-opacity="1"></path><path clip-path="url(#clip810)" d="M1353.33 1555.06 L1353.33 1553.03 Q1356.84 1553.03 1357.64 1552.61 Q1358.45 1552.16 1358.45 1550.03 L1358.45 1532.29 Q1358.45 1529.84 1357.61 1529.26 Q1356.8 1528.68 1353.58 1528.68 L1353.58 1526.62 L1362.79 1525.91 L1362.79 1550.1 Q1362.79 1552.06 1363.5 1552.54 Q1364.21 1553.03 1367.43 1553.03 L1367.43 1555.06 Q1360.7 1554.86 1360.57 1554.86 Q1359.67 1554.86 1353.33 1555.06 M1356.1 1514.41 Q1356.1 1513.09 1357.09 1512.03 Q1358.12 1510.93 1359.57 1510.93 Q1361.02 1510.93 1362.05 1511.93 Q1363.08 1512.9 1363.08 1514.44 Q1363.08 1515.96 1362.05 1516.96 Q1361.02 1517.92 1359.57 1517.92 Q1358.06 1517.92 1357.06 1516.86 Q1356.1 1515.8 1356.1 1514.41 Z" fill="#000000" fill-rule="evenodd" fill-opacity="1"></path><path clip-path="url(#clip810)" d="M1377.61 1551.51 Q1373.26 1547.2 1373.26 1540.95 Q1373.26 1534.67 1377.51 1530.1 Q1381.79 1525.49 1387.91 1525.49 Q1393.9 1525.49 1398.19 1530.06 Q1402.5 1534.6 1402.5 1540.95 Q1402.5 1547.16 1398.16 1551.48 Q1393.84 1555.8 1387.85 1555.8 Q1381.99 1555.8 1377.61 1551.51 M1378.74 1540.4 Q1378.74 1546.81 1380.41 1549.71 Q1382.99 1554.12 1387.91 1554.12 Q1390.36 1554.12 1392.39 1552.8 Q1394.45 1551.48 1395.58 1549.26 Q1397.03 1546.36 1397.03 1540.4 Q1397.03 1534.06 1395.29 1531.26 Q1392.71 1526.97 1387.85 1526.97 Q1385.72 1526.97 1383.63 1528.1 Q1381.57 1529.19 1380.31 1531.38 Q1378.74 1534.28 1378.74 1540.4 Z" fill="#000000" fill-rule="evenodd" fill-opacity="1"></path><path clip-path="url(#clip810)" d="M1404.6 1555.06 L1404.6 1553.03 Q1408.11 1553.03 1408.92 1552.61 Q1409.72 1552.16 1409.72 1550.03 L1409.72 1532.35 Q1409.72 1529.9 1408.86 1529.29 Q1408.02 1528.68 1404.6 1528.68 L1404.6 1526.62 L1413.88 1525.91 L1413.88 1532.83 Q1416.97 1525.91 1423.64 1525.91 Q1428.6 1525.91 1430.56 1528.36 Q1432.01 1530 1432.3 1531.83 Q1432.62 1533.67 1432.62 1538.44 L1432.62 1551.03 Q1432.69 1552.41 1433.75 1552.74 Q1434.81 1553.03 1437.78 1553.03 L1437.78 1555.06 Q1431.05 1554.86 1430.37 1554.86 Q1429.85 1554.86 1422.93 1555.06 L1422.93 1553.03 Q1426.44 1553.03 1427.24 1552.61 Q1428.08 1552.16 1428.08 1550.03 L1428.08 1534.67 Q1428.08 1531.32 1427.05 1529.36 Q1426.02 1527.36 1423.19 1527.36 Q1419.77 1527.36 1417.04 1530.22 Q1414.3 1533.09 1414.3 1537.92 L1414.3 1550.03 Q1414.3 1552.16 1415.1 1552.61 Q1415.94 1553.03 1419.42 1553.03 L1419.42 1555.06 Q1412.69 1554.86 1412.04 1554.86 Q1411.53 1554.86 1404.6 1555.06 Z" fill="#000000" fill-rule="evenodd" fill-opacity="1"></path><polyline clip-path="url(#clip812)" style="stroke:#000000; stroke-linecap:round; stroke-linejoin:round; stroke-width:2; stroke-opacity:0.1; fill:none" points="
  175.445,1384.24 2352.76,1384.24 
  "></polyline>
<polyline clip-path="url(#clip812)" style="stroke:#000000; stroke-linecap:round; stroke-linejoin:round; stroke-width:2; stroke-opacity:0.1; fill:none" points="
  175.445,1070.17 2352.76,1070.17 
  "></polyline>
<polyline clip-path="url(#clip812)" style="stroke:#000000; stroke-linecap:round; stroke-linejoin:round; stroke-width:2; stroke-opacity:0.1; fill:none" points="
  175.445,756.104 2352.76,756.104 
  "></polyline>
<polyline clip-path="url(#clip812)" style="stroke:#000000; stroke-linecap:round; stroke-linejoin:round; stroke-width:2; stroke-opacity:0.1; fill:none" points="
  175.445,442.037 2352.76,442.037 
  "></polyline>
<polyline clip-path="url(#clip812)" style="stroke:#000000; stroke-linecap:round; stroke-linejoin:round; stroke-width:2; stroke-opacity:0.1; fill:none" points="
  175.445,127.97 2352.76,127.97 
  "></polyline>
<polyline clip-path="url(#clip810)" style="stroke:#000000; stroke-linecap:round; stroke-linejoin:round; stroke-width:4; stroke-opacity:1; fill:none" points="
  175.445,1423.18 175.445,47.2441 
  "></polyline>
<polyline clip-path="url(#clip810)" style="stroke:#000000; stroke-linecap:round; stroke-linejoin:round; stroke-width:4; stroke-opacity:1; fill:none" points="
  2352.76,1423.18 2352.76,47.2441 
  "></polyline>
<polyline clip-path="url(#clip810)" style="stroke:#000000; stroke-linecap:round; stroke-linejoin:round; stroke-width:4; stroke-opacity:1; fill:none" points="
  175.445,1384.24 194.343,1384.24 
  "></polyline>
<polyline clip-path="url(#clip810)" style="stroke:#000000; stroke-linecap:round; stroke-linejoin:round; stroke-width:4; stroke-opacity:1; fill:none" points="
  175.445,1070.17 194.343,1070.17 
  "></polyline>
<polyline clip-path="url(#clip810)" style="stroke:#000000; stroke-linecap:round; stroke-linejoin:round; stroke-width:4; stroke-opacity:1; fill:none" points="
  175.445,756.104 194.343,756.104 
  "></polyline>
<polyline clip-path="url(#clip810)" style="stroke:#000000; stroke-linecap:round; stroke-linejoin:round; stroke-width:4; stroke-opacity:1; fill:none" points="
  175.445,442.037 194.343,442.037 
  "></polyline>
<polyline clip-path="url(#clip810)" style="stroke:#000000; stroke-linecap:round; stroke-linejoin:round; stroke-width:4; stroke-opacity:1; fill:none" points="
  175.445,127.97 194.343,127.97 
  "></polyline>
<path clip-path="url(#clip810)" d="M127.501 1370.04 Q123.89 1370.04 122.061 1373.6 Q120.255 1377.14 120.255 1384.27 Q120.255 1391.38 122.061 1394.94 Q123.89 1398.49 127.501 1398.49 Q131.135 1398.49 132.941 1394.94 Q134.769 1391.38 134.769 1384.27 Q134.769 1377.14 132.941 1373.6 Q131.135 1370.04 127.501 1370.04 M127.501 1366.33 Q133.311 1366.33 136.367 1370.94 Q139.445 1375.52 139.445 1384.27 Q139.445 1393 136.367 1397.61 Q133.311 1402.19 127.501 1402.19 Q121.691 1402.19 118.612 1397.61 Q115.556 1393 115.556 1384.27 Q115.556 1375.52 118.612 1370.94 Q121.691 1366.33 127.501 1366.33 Z" fill="#000000" fill-rule="evenodd" fill-opacity="1"></path><path clip-path="url(#clip810)" d="M123.126 1083.52 L139.445 1083.52 L139.445 1087.45 L117.501 1087.45 L117.501 1083.52 Q120.163 1080.76 124.746 1076.13 Q129.353 1071.48 130.533 1070.14 Q132.779 1067.61 133.658 1065.88 Q134.561 1064.12 134.561 1062.43 Q134.561 1059.67 132.617 1057.94 Q130.695 1056.2 127.593 1056.2 Q125.394 1056.2 122.941 1056.97 Q120.51 1057.73 117.732 1059.28 L117.732 1054.56 Q120.556 1053.42 123.01 1052.84 Q125.464 1052.27 127.501 1052.27 Q132.871 1052.27 136.066 1054.95 Q139.26 1057.64 139.26 1062.13 Q139.26 1064.26 138.45 1066.18 Q137.663 1068.08 135.556 1070.67 Q134.978 1071.34 131.876 1074.56 Q128.774 1077.75 123.126 1083.52 Z" fill="#000000" fill-rule="evenodd" fill-opacity="1"></path><path clip-path="url(#clip810)" d="M129.862 742.898 L118.056 761.347 L129.862 761.347 L129.862 742.898 M128.635 738.824 L134.515 738.824 L134.515 761.347 L139.445 761.347 L139.445 765.236 L134.515 765.236 L134.515 773.384 L129.862 773.384 L129.862 765.236 L114.26 765.236 L114.26 760.722 L128.635 738.824 Z" fill="#000000" fill-rule="evenodd" fill-opacity="1"></path><path clip-path="url(#clip810)" d="M127.917 440.173 Q124.769 440.173 122.918 442.326 Q121.089 444.479 121.089 448.229 Q121.089 451.956 122.918 454.132 Q124.769 456.284 127.917 456.284 Q131.066 456.284 132.894 454.132 Q134.746 451.956 134.746 448.229 Q134.746 444.479 132.894 442.326 Q131.066 440.173 127.917 440.173 M137.2 425.521 L137.2 429.78 Q135.441 428.947 133.635 428.507 Q131.853 428.067 130.093 428.067 Q125.464 428.067 123.01 431.192 Q120.58 434.317 120.232 440.636 Q121.598 438.622 123.658 437.558 Q125.718 436.47 128.195 436.47 Q133.404 436.47 136.413 439.641 Q139.445 442.789 139.445 448.229 Q139.445 453.553 136.297 456.77 Q133.149 459.988 127.917 459.988 Q121.922 459.988 118.751 455.405 Q115.58 450.798 115.58 442.072 Q115.58 433.877 119.468 429.016 Q123.357 424.132 129.908 424.132 Q131.667 424.132 133.45 424.479 Q135.255 424.826 137.2 425.521 Z" fill="#000000" fill-rule="evenodd" fill-opacity="1"></path><path clip-path="url(#clip810)" d="M127.593 128.838 Q124.26 128.838 122.339 130.62 Q120.441 132.402 120.441 135.527 Q120.441 138.652 122.339 140.435 Q124.26 142.217 127.593 142.217 Q130.927 142.217 132.848 140.435 Q134.769 138.629 134.769 135.527 Q134.769 132.402 132.848 130.62 Q130.95 128.838 127.593 128.838 M122.918 126.847 Q119.908 126.106 118.218 124.046 Q116.552 121.986 116.552 119.023 Q116.552 114.879 119.492 112.472 Q122.455 110.065 127.593 110.065 Q132.755 110.065 135.695 112.472 Q138.635 114.879 138.635 119.023 Q138.635 121.986 136.945 124.046 Q135.279 126.106 132.292 126.847 Q135.672 127.634 137.547 129.926 Q139.445 132.217 139.445 135.527 Q139.445 140.551 136.367 143.236 Q133.311 145.921 127.593 145.921 Q121.876 145.921 118.797 143.236 Q115.742 140.551 115.742 135.527 Q115.742 132.217 117.64 129.926 Q119.538 127.634 122.918 126.847 M121.205 119.463 Q121.205 122.148 122.871 123.653 Q124.561 125.157 127.593 125.157 Q130.603 125.157 132.292 123.653 Q134.005 122.148 134.005 119.463 Q134.005 116.778 132.292 115.273 Q130.603 113.768 127.593 113.768 Q124.561 113.768 122.871 115.273 Q121.205 116.778 121.205 119.463 Z" fill="#000000" fill-rule="evenodd" fill-opacity="1"></path><path clip-path="url(#clip810)" d="M38.2702 878.838 Q38.721 878.838 39.7838 879.128 L64.9688 885.44 Q70.5726 886.825 74.5018 891.334 Q78.4309 895.811 78.4309 900.899 Q78.4309 903.959 76.7884 905.923 Q75.1781 907.888 72.6982 907.888 Q70.5082 907.888 69.4454 906.729 Q68.4148 905.569 68.4148 904.184 Q68.4148 903.733 68.5437 903.25 Q68.6725 902.767 69.22 902.252 Q69.7675 901.737 70.7015 901.737 Q72.2151 901.737 73.4068 903.057 Q73.9543 903.701 74.0831 904.313 Q74.2119 904.893 74.2119 905.891 Q75.1137 905.505 75.7256 904.796 Q76.3375 904.088 76.5629 903.283 Q76.8206 902.477 76.885 901.962 Q76.9816 901.415 76.9816 900.899 Q76.9816 896.777 72.827 893.621 Q71.571 892.687 70.315 892.01 Q69.0912 891.302 67.5775 890.787 Q66.096 890.271 65.2909 890.046 Q64.4857 889.788 62.65 889.337 Q65.6451 892.333 65.6451 896.004 Q65.6451 897.55 65.2265 898.935 Q64.8078 900.287 63.9382 901.479 Q63.0365 902.671 61.4584 903.379 Q59.8803 904.055 57.7869 904.055 Q55.5647 904.055 52.5374 903.186 Q49.51 902.316 43.9384 900.223 Q40.8144 899.096 39.3007 899.096 Q38.56 899.096 38.1091 899.257 Q37.626 899.418 37.465 899.74 Q37.2718 900.062 37.2396 900.255 Q37.2074 900.416 37.2074 900.738 Q37.2074 902.638 39.1397 904.41 Q41.0721 906.181 45.3877 907.405 Q46.1928 907.663 46.386 907.824 Q46.5793 907.985 46.5793 908.468 Q46.5471 909.273 45.9029 909.273 Q45.6453 909.273 44.6469 908.983 Q43.6163 908.693 42.1027 908.017 Q40.5568 907.308 39.1719 906.342 Q37.7549 905.376 36.7565 903.862 Q35.7581 902.316 35.7581 900.545 Q35.7581 898.13 37.3362 896.648 Q38.8821 895.134 41.1687 895.134 Q42.1027 895.134 42.94 895.392 Q43.7452 895.618 45.9029 896.455 Q54.5985 899.837 58.8497 899.837 Q59.8803 899.837 60.7499 899.675 Q61.5872 899.482 62.4246 899.064 Q63.2297 898.645 63.7128 897.808 Q64.1637 896.938 64.1637 895.746 Q64.1637 894.233 63.4551 892.816 Q62.7144 891.366 61.716 890.465 Q60.7176 889.531 59.8803 888.983 Q59.0107 888.403 58.5599 888.275 L46.7081 885.312 L41.4263 883.991 Q38.56 883.379 37.8515 883.089 Q37.1752 882.703 36.8209 882.027 Q36.4666 881.35 36.4666 880.771 Q36.4666 879.965 36.9497 879.418 Q37.4328 878.838 38.2702 878.838 Z" fill="#000000" fill-rule="evenodd" fill-opacity="1"></path><path clip-path="url(#clip810)" d="M47.481 815.434 Q47.8675 815.047 48.415 815.047 Q48.9625 815.047 49.349 815.434 Q49.7354 815.82 49.7354 816.368 L49.7354 857.656 Q49.7354 858.203 49.349 858.59 Q48.9625 858.976 48.415 858.976 Q47.8675 858.976 47.481 858.59 Q47.0946 858.203 47.0946 857.656 L47.0946 816.368 Q47.0946 815.82 47.481 815.434 Z" fill="#000000" fill-rule="evenodd" fill-opacity="1"></path><path clip-path="url(#clip810)" d="M75.6612 789.859 Q75.6612 786.349 75.2103 785.544 Q74.7916 784.706 72.6982 784.706 L41.8128 784.706 Q39.6228 784.706 39.0753 785.544 Q38.5278 786.349 38.5278 789.859 L36.4666 789.859 L35.7581 780.358 L40.1059 780.358 Q35.7581 776.397 35.7581 771.115 Q35.7581 765.511 40.1059 761.421 Q44.4537 757.331 50.6694 757.331 Q56.9496 757.331 61.2974 761.679 Q65.6451 766.027 65.6451 772.049 Q65.6451 775.334 63.9704 777.556 Q62.2635 779.746 61.0075 780.165 L61.6194 780.165 L72.6982 780.165 Q74.8238 780.165 75.2425 779.328 Q75.6612 778.49 75.6612 775.012 L77.6901 775.012 Q77.4969 781.936 77.4969 782.452 Q77.4969 783.096 77.6901 789.859 L75.6612 789.859 M57.4004 780.165 Q58.3988 780.165 58.7531 780.036 Q59.1074 779.875 60.1701 779.231 Q64.1637 776.622 64.1637 772.371 Q64.1637 772.339 64.1637 772.307 Q64.1637 768.539 60.3312 765.673 Q56.4665 762.806 50.6694 762.806 Q45.13 762.806 41.2653 765.415 Q37.4006 768.024 37.4006 771.631 Q37.4006 774.207 38.7855 776.461 Q40.1703 778.716 42.6824 780.165 L57.4004 780.165 Z" fill="#000000" fill-rule="evenodd" fill-opacity="1"></path><path clip-path="url(#clip810)" d="M61.3618 744.259 Q57.0462 748.606 50.7982 748.606 Q44.5181 748.606 39.9449 744.355 Q35.3394 740.072 35.3394 733.953 Q35.3394 727.962 39.9127 723.679 Q44.4537 719.363 50.7982 719.363 Q57.014 719.363 61.3296 723.711 Q65.6451 728.027 65.6451 734.017 Q65.6451 739.879 61.3618 744.259 M50.2507 743.131 Q56.6597 743.131 59.5582 741.457 Q63.9704 738.88 63.9704 733.953 Q63.9704 731.505 62.65 729.476 Q61.3296 727.415 59.1074 726.288 Q56.2088 724.838 50.2507 724.838 Q43.9062 724.838 41.1043 726.578 Q36.8209 729.154 36.8209 734.017 Q36.8209 736.143 37.9481 738.236 Q39.0431 740.297 41.2331 741.553 Q44.1316 743.131 50.2507 743.131 Z" fill="#000000" fill-rule="evenodd" fill-opacity="1"></path><path clip-path="url(#clip810)" d="M64.0348 715.942 L55.3393 715.942 Q54.5985 715.942 54.3409 715.91 Q54.0832 715.878 53.89 715.685 Q53.6968 715.491 53.6968 715.105 Q53.6968 714.654 53.89 714.493 Q54.0832 714.3 54.824 714.171 Q59.365 713.173 61.7804 711.047 Q64.1637 708.889 64.1637 704.992 Q64.1637 701.289 62.5212 699.421 Q60.8787 697.553 58.1734 697.553 Q53.3425 697.553 52.1187 704.413 Q51.3135 708.374 50.7982 710.016 Q50.2507 711.659 49.0591 713.108 Q46.7403 715.942 43.4553 715.942 Q40.1703 715.942 37.7549 713.462 Q35.3394 710.95 35.3394 705.411 Q35.3394 701.707 37.2074 699.195 Q36.6277 698.455 36.1446 698.068 Q35.3394 697.199 35.3394 696.748 Q35.3394 696.232 35.6937 696.136 Q36.0157 696.039 36.9497 696.039 L43.5841 696.039 Q44.3249 696.039 44.5825 696.071 Q44.8402 696.104 45.0334 696.297 Q45.1944 696.49 45.1944 696.909 Q45.1944 697.649 44.5825 697.682 Q36.5955 698.197 36.5955 705.411 Q36.5955 709.308 38.1091 711.047 Q39.5906 712.786 41.6196 712.786 Q42.7468 712.786 43.6163 712.271 Q44.4537 711.723 44.969 711.047 Q45.4521 710.339 45.9352 709.05 Q46.386 707.762 46.5471 706.989 Q46.7081 706.184 47.0302 704.67 Q48.0285 699.389 50.1863 697.166 Q52.956 694.397 56.4665 694.397 Q60.3634 694.397 63.0043 697.038 Q65.6451 699.678 65.6451 704.992 Q65.6451 709.276 62.7788 712.271 Q63.1653 712.657 63.5196 712.947 Q63.8416 713.237 63.9704 713.366 Q64.0993 713.462 64.1959 713.495 Q64.2603 713.527 64.3247 713.591 Q65.6451 714.912 65.6451 715.234 Q65.6451 715.749 65.2909 715.846 Q64.9688 715.942 64.0348 715.942 Z" fill="#000000" fill-rule="evenodd" fill-opacity="1"></path><path clip-path="url(#clip810)" d="M64.9044 691.816 L62.8754 691.816 Q62.8754 688.306 62.4568 687.501 Q62.0059 686.695 59.8803 686.695 L42.1349 686.695 Q39.6872 686.695 39.1075 687.533 Q38.5278 688.338 38.5278 691.559 L36.4666 691.559 L35.7581 682.348 L59.9447 682.348 Q61.9093 682.348 62.3924 681.639 Q62.8754 680.931 62.8754 677.71 L64.9044 677.71 Q64.7112 684.441 64.7112 684.57 Q64.7112 685.472 64.9044 691.816 M24.2606 689.046 Q22.9402 689.046 21.8774 688.048 Q20.7824 687.017 20.7824 685.568 Q20.7824 684.119 21.7808 683.088 Q22.7469 682.058 24.2928 682.058 Q25.8065 682.058 26.8049 683.088 Q27.771 684.119 27.771 685.568 Q27.771 687.082 26.7083 688.08 Q25.6455 689.046 24.2606 689.046 Z" fill="#000000" fill-rule="evenodd" fill-opacity="1"></path><path clip-path="url(#clip810)" d="M38.5278 673.202 L37.0785 673.202 Q36.9497 670.174 34.8241 668.178 Q32.6663 666.149 30.0255 665.472 Q27.3846 664.764 24.325 664.699 L24.325 663.057 L36.4666 663.057 L36.4666 653.621 L38.5278 653.621 L38.5278 663.057 L56.8529 663.057 Q63.9704 663.057 63.9704 658.612 Q63.9704 656.712 62.0381 655.456 Q60.0735 654.2 56.5953 654.2 L52.956 654.2 L52.956 652.558 L56.7241 652.558 Q60.299 652.558 62.9721 654.2 Q65.6451 655.843 65.6451 659.096 Q65.6451 660.287 65.3231 661.479 Q65.0332 662.638 64.2603 664.184 Q63.4551 665.698 61.5228 666.664 Q59.5582 667.598 56.7241 667.598 L38.5278 667.598 L38.5278 673.202 Z" fill="#000000" fill-rule="evenodd" fill-opacity="1"></path><path clip-path="url(#clip810)" d="M64.9044 648.666 L62.8754 648.666 Q62.8754 645.156 62.4568 644.351 Q62.0059 643.546 59.8803 643.546 L42.1349 643.546 Q39.6872 643.546 39.1075 644.383 Q38.5278 645.188 38.5278 648.409 L36.4666 648.409 L35.7581 639.198 L59.9447 639.198 Q61.9093 639.198 62.3924 638.489 Q62.8754 637.781 62.8754 634.56 L64.9044 634.56 Q64.7112 641.291 64.7112 641.42 Q64.7112 642.322 64.9044 648.666 M24.2606 645.897 Q22.9402 645.897 21.8774 644.898 Q20.7824 643.868 20.7824 642.418 Q20.7824 640.969 21.7808 639.939 Q22.7469 638.908 24.2928 638.908 Q25.8065 638.908 26.8049 639.939 Q27.771 640.969 27.771 642.418 Q27.771 643.932 26.7083 644.93 Q25.6455 645.897 24.2606 645.897 Z" fill="#000000" fill-rule="evenodd" fill-opacity="1"></path><path clip-path="url(#clip810)" d="M61.3618 624.384 Q57.0462 628.732 50.7982 628.732 Q44.5181 628.732 39.9449 624.481 Q35.3394 620.197 35.3394 614.078 Q35.3394 608.088 39.9127 603.805 Q44.4537 599.489 50.7982 599.489 Q57.014 599.489 61.3296 603.837 Q65.6451 608.152 65.6451 614.143 Q65.6451 620.004 61.3618 624.384 M50.2507 623.257 Q56.6597 623.257 59.5582 621.582 Q63.9704 619.006 63.9704 614.078 Q63.9704 611.631 62.65 609.602 Q61.3296 607.54 59.1074 606.413 Q56.2088 604.964 50.2507 604.964 Q43.9062 604.964 41.1043 606.703 Q36.8209 609.28 36.8209 614.143 Q36.8209 616.268 37.9481 618.362 Q39.0431 620.423 41.2331 621.679 Q44.1316 623.257 50.2507 623.257 Z" fill="#000000" fill-rule="evenodd" fill-opacity="1"></path><path clip-path="url(#clip810)" d="M64.9044 597.388 L62.8754 597.388 Q62.8754 593.877 62.4568 593.072 Q62.0059 592.267 59.8803 592.267 L42.1993 592.267 Q39.7516 592.267 39.1397 593.137 Q38.5278 593.974 38.5278 597.388 L36.4666 597.388 L35.7581 588.113 L42.6824 588.113 Q35.7581 585.021 35.7581 578.354 Q35.7581 573.394 38.2057 571.43 Q39.8482 569.981 41.684 569.691 Q43.5197 569.369 48.2862 569.369 L60.8787 569.369 Q62.2635 569.304 62.5856 568.242 Q62.8754 567.179 62.8754 564.216 L64.9044 564.216 Q64.7112 570.947 64.7112 571.623 Q64.7112 572.138 64.9044 579.063 L62.8754 579.063 Q62.8754 575.552 62.4568 574.747 Q62.0059 573.91 59.8803 573.91 L44.5181 573.91 Q41.1687 573.91 39.2041 574.94 Q37.2074 575.971 37.2074 578.805 Q37.2074 582.219 40.0737 584.956 Q42.94 587.694 47.7709 587.694 L59.8803 587.694 Q62.0059 587.694 62.4568 586.889 Q62.8754 586.051 62.8754 582.573 L64.9044 582.573 Q64.7112 589.304 64.7112 589.948 Q64.7112 590.464 64.9044 597.388 Z" fill="#000000" fill-rule="evenodd" fill-opacity="1"></path><polyline clip-path="url(#clip812)" style="stroke:#ff0000; stroke-linecap:round; stroke-linejoin:round; stroke-width:8; stroke-opacity:1; fill:none" stroke-dasharray="32, 20" points="
  1656.68,599.07 1656.68,599.057 1656.66,599.019 1656.64,598.954 1656.6,598.863 1656.56,598.747 1656.5,598.604 1656.43,598.436 1656.35,598.241 1656.26,598.021 
  1656.17,597.775 1656.06,597.503 1655.94,597.205 1655.81,596.882 1655.67,596.532 1655.52,596.156 1655.36,595.755 1655.19,595.327 1655.01,594.874 1654.81,594.395 
  1654.61,593.89 1654.4,593.359 1654.18,592.802 1653.94,592.219 1653.7,591.61 1653.45,590.976 1653.18,590.315 1652.91,589.629 1652.62,588.917 1652.33,588.178 
  1652.02,587.414 1651.71,586.624 1651.38,585.808 1651.04,584.966 1650.7,584.099 1650.34,583.205 1649.97,582.285 1649.59,581.34 1649.2,580.369 1648.81,579.371 
  1648.4,578.348 1647.98,577.299 1647.55,576.224 1647.11,575.123 1646.66,573.997 1646.2,572.844 1645.72,571.665 1645.24,570.461 1644.75,569.231 1644.25,567.974 
  1643.74,566.692 1643.21,565.384 1642.68,564.05 1642.13,562.69 1641.58,561.304 1641.02,559.893 1640.44,558.455 1639.86,556.992 1639.26,555.502 1638.65,553.987 
  1638.04,552.446 1637.41,550.879 1636.77,549.285 1636.13,547.667 1635.47,546.022 1634.8,544.351 1634.12,542.654 1633.43,540.932 1632.73,539.183 1632.02,537.409 
  1631.3,535.609 1630.57,533.783 1629.83,531.931 1629.08,530.053 1628.32,528.149 1627.55,526.219 1626.77,524.264 1625.97,522.282 1625.17,520.275 1624.36,518.241 
  1623.53,516.182 1622.7,514.097 1621.86,511.986 1621,509.849 1620.14,507.686 1619.26,505.497 1618.37,503.282 1617.48,501.042 1616.57,498.775 1615.66,496.483 
  1614.73,494.165 1613.79,491.821 1612.84,489.45 1611.88,487.054 1610.92,484.633 1609.94,482.185 1608.95,479.711 1607.95,477.211 1606.94,474.686 1605.92,472.135 
  1604.89,469.557 1603.85,466.954 1602.79,464.325 1601.73,461.67 1600.66,458.989 1599.58,456.282 1598.48,453.549 1597.38,450.791 1596.27,448.006 1595.14,445.196 
  1594.01,442.359 1592.86,439.497 1591.71,436.609 1590.54,433.695 1589.37,430.755 1588.18,427.789 1586.99,424.797 1585.78,421.78 1584.56,418.736 1583.33,415.667 
  1582.1,412.571 1580.85,409.45 1579.59,406.303 1578.32,403.13 1577.04,399.931 1575.75,396.706 1574.45,393.455 1573.14,390.179 1571.82,386.876 1570.49,383.548 
  1569.15,380.193 1567.79,376.813 1566.43,373.407 1565.06,369.975 1563.68,366.517 1562.28,363.033 1560.88,359.523 1559.46,355.987 1558.04,352.426 1556.61,348.838 
  1555.16,345.225 1553.7,341.585 1552.24,337.92 1550.76,334.229 1549.28,330.512 1547.78,326.769 1546.27,323 1544.75,319.205 1543.23,315.385 1541.69,311.538 
  1540.14,307.666 1538.58,303.767 1537.01,299.843 1535.43,295.893 1533.84,291.917 1532.24,287.915 1530.63,283.887 1529.01,279.833 1527.38,275.754 1525.73,271.648 
  1524.08,267.517 1522.42,263.359 1520.75,259.176 1519.06,254.967 1517.37,250.732 1515.66,246.471 1513.95,242.184 1512.22,237.871 1510.49,233.533 1508.74,229.168 
  1506.99,224.777 1505.22,220.361 1503.45,215.919 1501.66,211.451 1499.86,206.956 1498.05,202.436 1496.23,197.891 1494.41,193.319 1492.57,188.721 1490.72,184.097 
  1488.86,179.448 1486.99,174.772 1485.11,170.071 1483.22,165.344 1481.32,160.591 1479.41,155.812 1477.48,151.007 1475.55,146.176 1473.61,141.319 1471.66,136.437 
  1469.69,131.528 1467.72,126.594 1465.74,121.633 1463.74,116.647 1461.74,111.635 1459.72,106.597 1457.7,101.533 1455.66,96.4431 1453.61,91.3273 1451.56,86.1857 
  
  "></polyline>
<polyline clip-path="url(#clip812)" style="stroke:#0000ff; stroke-linecap:round; stroke-linejoin:round; stroke-width:8; stroke-opacity:1; fill:none" stroke-dasharray="32, 16, 4, 16" points="
  871.517,1384.24 880.812,1379.93 890.079,1375.61 899.29,1371.3 908.446,1366.99 917.545,1362.68 926.589,1358.37 935.577,1354.06 944.51,1349.74 953.386,1345.43 
  962.207,1341.12 970.972,1336.81 979.681,1332.5 988.334,1328.18 996.932,1323.87 1005.47,1319.56 1013.96,1315.25 1022.39,1310.94 1030.76,1306.62 1039.08,1302.31 
  1047.35,1298 1055.55,1293.69 1063.7,1289.38 1071.8,1285.07 1079.84,1280.75 1087.82,1276.44 1095.75,1272.13 1103.62,1267.82 1111.44,1263.51 1119.2,1259.19 
  1126.91,1254.88 1134.55,1250.57 1142.15,1246.26 1149.68,1241.95 1157.17,1237.63 1164.59,1233.32 1171.96,1229.01 1179.28,1224.7 1186.54,1220.39 1193.74,1216.08 
  1200.88,1211.76 1207.98,1207.45 1215.01,1203.14 1221.99,1198.83 1228.91,1194.52 1235.78,1190.2 1242.59,1185.89 1249.35,1181.58 1256.05,1177.27 1262.7,1172.96 
  1269.29,1168.65 1275.82,1164.33 1282.3,1160.02 1288.72,1155.71 1295.08,1151.4 1301.39,1147.09 1307.65,1142.77 1313.85,1138.46 1319.99,1134.15 1326.08,1129.84 
  1332.11,1125.53 1338.08,1121.21 1344,1116.9 1349.86,1112.59 1355.67,1108.28 1361.42,1103.97 1367.12,1099.66 1372.76,1095.34 1378.35,1091.03 1383.87,1086.72 
  1389.35,1082.41 1394.76,1078.1 1400.13,1073.78 1405.43,1069.47 1410.68,1065.16 1415.88,1060.85 1421.01,1056.54 1426.1,1052.22 1431.12,1047.91 1436.09,1043.6 
  1441.01,1039.29 1445.87,1034.98 1450.67,1030.67 1455.42,1026.35 1460.11,1022.04 1464.75,1017.73 1469.33,1013.42 1473.85,1009.11 1478.32,1004.79 1482.73,1000.48 
  1487.09,996.171 1491.39,991.859 1495.64,987.547 1499.83,983.235 1503.96,978.923 1508.04,974.611 1512.06,970.3 1516.03,965.988 1519.94,961.676 1523.8,957.364 
  1527.59,953.052 1531.34,948.74 1535.03,944.428 1538.66,940.116 1542.23,935.805 1545.75,931.493 1549.22,927.181 1552.63,922.869 1555.98,918.557 1559.28,914.245 
  1562.52,909.933 1565.7,905.622 1568.83,901.31 1571.91,896.998 1574.92,892.686 1577.89,888.374 1580.79,884.062 1583.64,879.75 1586.44,875.439 1589.18,871.127 
  1591.86,866.815 1594.49,862.503 1597.06,858.191 1599.58,853.879 1602.04,849.567 1604.44,845.256 1606.79,840.944 1609.08,836.632 1611.32,832.32 1613.5,828.008 
  1615.63,823.696 1617.7,819.384 1619.71,815.072 1621.67,810.761 1623.57,806.449 1625.42,802.137 1627.21,797.825 1628.94,793.513 1630.62,789.201 1632.24,784.889 
  1633.81,780.578 1635.32,776.266 1636.78,771.954 1638.18,767.642 1639.52,763.33 1640.81,759.018 1642.04,754.706 1643.22,750.395 1644.34,746.083 1645.41,741.771 
  1646.42,737.459 1647.37,733.147 1648.27,728.835 1649.11,724.523 1649.9,720.212 1650.63,715.9 1651.3,711.588 1651.92,707.276 1652.48,702.964 1652.99,698.652 
  1653.44,694.34 1653.84,690.028 1654.18,685.717 1654.46,681.405 1654.69,677.093 1654.86,672.781 1654.98,668.469 1655.04,664.157 1655.05,659.845 1655,655.534 
  1654.89,651.222 1654.73,646.91 1654.51,642.598 1654.23,638.286 1653.91,633.974 1653.52,629.662 1653.08,625.351 1652.58,621.039 1652.03,616.727 1651.42,612.415 
  1650.76,608.103 1650.04,603.791 1649.26,599.479 1648.43,595.168 1647.54,590.856 1646.6,586.544 1645.6,582.232 1644.54,577.92 1643.43,573.608 1642.27,569.296 
  1641.04,564.984 1639.77,560.673 1638.43,556.361 1637.04,552.049 1635.6,547.737 1634.09,543.425 1632.54,539.113 1630.92,534.801 1629.26,530.49 1627.53,526.178 
  
  "></polyline>
<circle clip-path="url(#clip812)" cx="1656.68" cy="599.07" r="14.4" fill="#3da44d" fill-rule="evenodd" fill-opacity="1" stroke="#000000" stroke-opacity="1" stroke-width="3.2"></circle>
<circle clip-path="url(#clip812)" cx="871.517" cy="1384.24" r="14.4" fill="#c271d2" fill-rule="evenodd" fill-opacity="1" stroke="#000000" stroke-opacity="1" stroke-width="3.2"></circle>
<circle clip-path="url(#clip812)" cx="871.517" cy="1384.24" r="18" fill="#000000" fill-rule="evenodd" fill-opacity="1" stroke="none"></circle>
<circle clip-path="url(#clip812)" cx="1656.68" cy="599.07" r="18" fill="#000000" fill-rule="evenodd" fill-opacity="1" stroke="none"></circle>
<circle clip-path="url(#clip812)" cx="871.517" cy="1384.24" r="18" fill="#000000" fill-rule="evenodd" fill-opacity="1" stroke="none"></circle>
<path clip-path="url(#clip812)" d="M1627.53 486.178 L1618.13 513.218 L1589.49 513.818 L1612.33 531.138 L1604.01 558.538 L1627.53 542.178 L1651.05 558.538 L1642.73 531.138 L1665.57 513.818 L1636.93 513.218 L1627.53 486.178 Z" fill="#c68125" fill-rule="evenodd" fill-opacity="1" stroke="#000000" stroke-opacity="1" stroke-width="3.2"></path>
<path clip-path="url(#clip810)" d="M826.255 1336.55 Q826.255 1341.14 822.852 1345.36 Q819.491 1349.59 813.999 1352.17 Q808.547 1354.71 802.686 1354.71 L788.421 1354.71 L783.216 1375.7 Q783.175 1375.82 783.052 1376.35 Q782.929 1376.84 782.929 1377.13 Q782.929 1378.16 784.2 1378.4 Q785.511 1378.65 788.421 1378.65 Q790.307 1378.65 790.594 1378.98 Q790.758 1379.18 790.758 1379.55 Q790.758 1380.12 790.594 1380.53 Q790.43 1380.9 790.102 1381.03 Q789.815 1381.15 789.61 1381.19 Q789.405 1381.23 789.077 1381.23 Q788.217 1381.23 786.372 1381.15 Q784.568 1381.07 783.626 1381.07 L778.256 1380.98 L767.599 1381.23 Q766.328 1381.23 766.328 1380.21 Q766.328 1379.43 766.656 1379.1 Q766.984 1378.73 767.353 1378.69 Q767.722 1378.65 768.665 1378.65 Q770.714 1378.65 771.944 1378.52 Q773.173 1378.4 773.952 1378.24 Q774.772 1378.03 775.182 1377.46 Q775.633 1376.89 775.838 1376.39 Q776.043 1375.86 776.33 1374.67 L787.561 1329.58 Q787.889 1328.23 787.889 1328.03 Q787.889 1327.33 787.479 1327.08 Q787.11 1326.8 786.044 1326.67 Q783.995 1326.51 782.437 1326.51 Q781.412 1326.51 781.002 1326.47 Q780.633 1326.43 780.306 1326.22 Q780.019 1325.98 780.019 1325.48 Q780.019 1324.71 780.347 1324.38 Q780.715 1324.01 781.125 1323.97 Q781.535 1323.89 782.519 1323.89 L809.736 1323.89 Q817.565 1323.89 821.91 1327.62 Q826.255 1331.35 826.255 1336.55 M818.467 1334.54 Q818.467 1326.51 807.031 1326.51 L798.997 1326.51 Q796.332 1326.51 795.677 1327 Q795.021 1327.45 794.447 1329.71 L788.749 1352.54 L800.595 1352.54 Q808.547 1352.54 813.507 1348.07 Q815.761 1346.02 817.114 1341.76 Q818.467 1337.49 818.467 1334.54 Z" fill="#000000" fill-rule="evenodd" fill-opacity="1"></path><path clip-path="url(#clip810)" d="M1608.37 541.134 L1606.69 555.645 Q1606.56 556.956 1606.36 557.366 Q1606.15 557.735 1605.5 557.735 Q1605.01 557.735 1604.72 557.448 Q1604.47 557.12 1604.47 556.751 Q1604.47 556.546 1604.51 556.014 Q1604.55 555.481 1604.55 555.235 Q1604.92 552.693 1604.92 550.767 Q1604.92 547.201 1603.86 545.274 Q1602.79 543.307 1600.05 542.405 Q1597.3 541.462 1592.13 541.462 L1580.33 541.462 Q1577.62 541.462 1576.97 541.954 Q1576.35 542.446 1575.78 544.741 L1570.74 564.949 L1578.65 564.949 Q1581.6 564.949 1583.36 564.58 Q1585.17 564.211 1586.36 563.187 Q1587.58 562.121 1588.24 560.686 Q1588.94 559.252 1589.63 556.669 Q1589.84 555.809 1590.04 555.481 Q1590.29 555.153 1590.82 555.153 Q1591.23 555.153 1591.52 555.44 Q1591.81 555.686 1591.81 556.055 L1587.01 575.688 Q1586.77 576.672 1586.52 577.041 Q1586.27 577.369 1585.78 577.369 Q1585.25 577.369 1584.96 577.082 Q1584.67 576.795 1584.67 576.467 Q1584.67 576.139 1584.92 575.524 Q1585.54 572.86 1585.54 571.425 Q1585.54 570.606 1585.45 570.196 Q1585.41 569.786 1585.04 569.212 Q1584.72 568.597 1583.98 568.31 Q1583.24 568.023 1581.85 567.818 Q1580.45 567.573 1578.36 567.573 L1570.08 567.573 L1564.34 590.486 Q1563.93 592.002 1563.93 592.412 Q1563.93 592.863 1564.14 593.027 Q1564.39 593.15 1565.04 593.232 Q1565.78 593.355 1566.89 593.355 L1579.14 593.355 Q1581.85 593.355 1584.02 593.109 Q1586.19 592.863 1587.99 592.248 Q1589.84 591.633 1591.23 590.936 Q1592.63 590.24 1593.94 588.969 Q1595.25 587.657 1596.15 586.51 Q1597.09 585.321 1598.2 583.312 Q1599.31 581.304 1600.09 579.664 Q1600.87 577.984 1602.05 575.278 Q1602.38 574.295 1603.16 574.295 Q1603.61 574.295 1603.86 574.541 Q1604.1 574.746 1604.14 574.951 L1604.14 575.197 Q1603.9 575.975 1603.73 576.385 L1596.03 594.502 Q1595.58 595.527 1595.21 595.732 Q1594.84 595.937 1593.41 595.937 L1549.83 595.937 Q1548.85 595.937 1548.44 595.896 Q1548.07 595.855 1547.78 595.65 Q1547.5 595.404 1547.5 594.912 Q1547.5 594.134 1547.83 593.806 Q1548.15 593.437 1548.52 593.396 Q1548.89 593.355 1549.83 593.355 Q1551.88 593.355 1553.11 593.232 Q1554.34 593.109 1555.12 592.945 Q1555.94 592.74 1556.35 592.166 Q1556.8 591.592 1557.01 591.1 Q1557.21 590.567 1557.5 589.379 L1568.57 544.987 Q1568.98 543.471 1568.98 542.979 Q1568.98 542.446 1568.61 542.118 Q1568.28 541.79 1567.38 541.667 Q1566.48 541.503 1565.74 541.503 Q1565.04 541.462 1563.52 541.462 Q1562.54 541.462 1562.13 541.421 Q1561.76 541.38 1561.47 541.175 Q1561.19 540.97 1561.19 540.52 Q1561.19 539.372 1561.68 539.126 Q1562.21 538.839 1563.69 538.839 L1606.07 538.839 Q1607.75 538.839 1608.12 539.208 Q1608.53 539.536 1608.37 541.134 Z" fill="#000000" fill-rule="evenodd" fill-opacity="1"></path></svg>