<?xml version="1.0" encoding="UTF-8" standalone="no"?><!DOCTYPE svg PUBLIC "-//W3C//DTD SVG 1.1//EN" "http://www.w3.org/Graphics/SVG/1.1/DTD/svg11.dtd"><!-- Generated by graphviz version 2.40.1 (20161225.0304)
 --><!-- Title: Tree Pages: 1 --><svg xmlns="http://www.w3.org/2000/svg" xmlns:xlink="http://www.w3.org/1999/xlink" width="1518pt" height="1178pt" viewBox="0.00 0.00 1517.54 1178.40">
<g id="graph0" class="graph" transform="scale(1 1) rotate(0) translate(4 1174.4)">
<title>Tree</title>
<polygon fill="#ffffff" stroke="transparent" points="-4,4 -4,-1174.4 1513.5356,-1174.4 1513.5356,4 -4,4"/>
<!-- 0 -->
<g id="node1" class="node">
<title>0</title>
<polygon fill="none" stroke="#000000" points="777.3041,-1170.5003 630.2315,-1170.5003 630.2315,-1095.0997 777.3041,-1095.0997 777.3041,-1170.5003"/>
<text text-anchor="middle" x="703.7678" y="-1153.8" font-family="Times,serif" font-size="14.00" fill="#000000">X[1] &lt;= 0.057</text>
<text text-anchor="middle" x="703.7678" y="-1137" font-family="Times,serif" font-size="14.00" fill="#000000">entropy = 1.572</text>
<text text-anchor="middle" x="703.7678" y="-1120.2" font-family="Times,serif" font-size="14.00" fill="#000000">samples = 1360</text>
<text text-anchor="middle" x="703.7678" y="-1103.4" font-family="Times,serif" font-size="14.00" fill="#000000">value = [507, 371, 482]</text>
</g>
<!-- 1 -->
<g id="node2" class="node">
<title>1</title>
<polygon fill="none" stroke="#000000" points="701.3041,-1059.3003 554.2315,-1059.3003 554.2315,-983.8997 701.3041,-983.8997 701.3041,-1059.3003"/>
<text text-anchor="middle" x="627.7678" y="-1042.6" font-family="Times,serif" font-size="14.00" fill="#000000">X[1] &lt;= -0.0</text>
<text text-anchor="middle" x="627.7678" y="-1025.8" font-family="Times,serif" font-size="14.00" fill="#000000">entropy = 1.543</text>
<text text-anchor="middle" x="627.7678" y="-1009" font-family="Times,serif" font-size="14.00" fill="#000000">samples = 1159</text>
<text text-anchor="middle" x="627.7678" y="-992.2" font-family="Times,serif" font-size="14.00" fill="#000000">value = [507, 371, 281]</text>
</g>
<!-- 0&#45;&gt;1 -->
<g id="edge1" class="edge">
<title>0-&gt;1</title>
<path fill="none" stroke="#000000" d="M678.0377,-1095.1528C671.9712,-1086.2765 665.4373,-1076.7165 659.1526,-1067.5209"/>
<polygon fill="#000000" stroke="#000000" points="662.0037,-1065.4896 653.4714,-1059.2085 656.2245,-1069.4394 662.0037,-1065.4896"/>
<text text-anchor="middle" x="648.8515" y="-1079.5779" font-family="Times,serif" font-size="14.00" fill="#000000">True</text>
</g>
<!-- 40 -->
<g id="node41" class="node">
<title>40</title>
<polygon fill="none" stroke="#000000" points="839.3043,-1051.0014 720.2313,-1051.0014 720.2313,-992.1986 839.3043,-992.1986 839.3043,-1051.0014"/>
<text text-anchor="middle" x="779.7678" y="-1034.2" font-family="Times,serif" font-size="14.00" fill="#000000">entropy = 0.0</text>
<text text-anchor="middle" x="779.7678" y="-1017.4" font-family="Times,serif" font-size="14.00" fill="#000000">samples = 201</text>
<text text-anchor="middle" x="779.7678" y="-1000.6" font-family="Times,serif" font-size="14.00" fill="#000000">value = [0, 0, 201]</text>
</g>
<!-- 0&#45;&gt;40 -->
<g id="edge40" class="edge">
<title>0-&gt;40</title>
<path fill="none" stroke="#000000" d="M729.4979,-1095.1528C737.3219,-1083.705 745.9233,-1071.1199 753.7651,-1059.646"/>
<polygon fill="#000000" stroke="#000000" points="756.8353,-1061.3568 759.5883,-1051.1258 751.056,-1057.4069 756.8353,-1061.3568"/>
<text text-anchor="middle" x="764.2082" y="-1071.4953" font-family="Times,serif" font-size="14.00" fill="#000000">False</text>
</g>
<!-- 2 -->
<g id="node3" class="node">
<title>2</title>
<polygon fill="none" stroke="#000000" points="622.3041,-948.1003 475.2315,-948.1003 475.2315,-872.6997 622.3041,-872.6997 622.3041,-948.1003"/>
<text text-anchor="middle" x="548.7678" y="-931.4" font-family="Times,serif" font-size="14.00" fill="#000000">X[1] &lt;= -0.056</text>
<text text-anchor="middle" x="548.7678" y="-914.6" font-family="Times,serif" font-size="14.00" fill="#000000">entropy = 1.522</text>
<text text-anchor="middle" x="548.7678" y="-897.8" font-family="Times,serif" font-size="14.00" fill="#000000">samples = 611</text>
<text text-anchor="middle" x="548.7678" y="-881" font-family="Times,serif" font-size="14.00" fill="#000000">value = [201, 132, 278]</text>
</g>
<!-- 1&#45;&gt;2 -->
<g id="edge2" class="edge">
<title>1-&gt;2</title>
<path fill="none" stroke="#000000" d="M601.022,-983.9528C594.7161,-975.0765 587.9243,-965.5165 581.3914,-956.3209"/>
<polygon fill="#000000" stroke="#000000" points="584.1309,-954.1336 575.4861,-948.0085 578.4244,-958.1877 584.1309,-954.1336"/>
</g>
<!-- 25 -->
<g id="node26" class="node">
<title>25</title>
<polygon fill="none" stroke="#000000" points="795.3042,-948.1003 662.2314,-948.1003 662.2314,-872.6997 795.3042,-872.6997 795.3042,-948.1003"/>
<text text-anchor="middle" x="728.7678" y="-931.4" font-family="Times,serif" font-size="14.00" fill="#000000">X[1] &lt;= 0.005</text>
<text text-anchor="middle" x="728.7678" y="-914.6" font-family="Times,serif" font-size="14.00" fill="#000000">entropy = 1.033</text>
<text text-anchor="middle" x="728.7678" y="-897.8" font-family="Times,serif" font-size="14.00" fill="#000000">samples = 548</text>
<text text-anchor="middle" x="728.7678" y="-881" font-family="Times,serif" font-size="14.00" fill="#000000">value = [306, 239, 3]</text>
</g>
<!-- 1&#45;&gt;25 -->
<g id="edge25" class="edge">
<title>1-&gt;25</title>
<path fill="none" stroke="#000000" d="M661.9618,-983.9528C670.2706,-974.8048 679.2392,-964.9305 687.8252,-955.4774"/>
<polygon fill="#000000" stroke="#000000" points="690.4764,-957.7641 694.609,-948.0085 685.2947,-953.0577 690.4764,-957.7641"/>
</g>
<!-- 3 -->
<g id="node4" class="node">
<title>3</title>
<polygon fill="none" stroke="#000000" points="463.3043,-828.6014 344.2313,-828.6014 344.2313,-769.7986 463.3043,-769.7986 463.3043,-828.6014"/>
<text text-anchor="middle" x="403.7678" y="-811.8" font-family="Times,serif" font-size="14.00" fill="#000000">entropy = 0.0</text>
<text text-anchor="middle" x="403.7678" y="-795" font-family="Times,serif" font-size="14.00" fill="#000000">samples = 201</text>
<text text-anchor="middle" x="403.7678" y="-778.2" font-family="Times,serif" font-size="14.00" fill="#000000">value = [201, 0, 0]</text>
</g>
<!-- 2&#45;&gt;3 -->
<g id="edge3" class="edge">
<title>2-&gt;3</title>
<path fill="none" stroke="#000000" d="M499.6774,-872.7528C483.7257,-860.5194 466.0801,-846.9871 450.3193,-834.9002"/>
<polygon fill="#000000" stroke="#000000" points="452.3333,-832.034 442.2682,-828.7258 448.0735,-837.5887 452.3333,-832.034"/>
</g>
<!-- 4 -->
<g id="node5" class="node">
<title>4</title>
<polygon fill="none" stroke="#000000" points="615.3042,-836.9003 482.2314,-836.9003 482.2314,-761.4997 615.3042,-761.4997 615.3042,-836.9003"/>
<text text-anchor="middle" x="548.7678" y="-820.2" font-family="Times,serif" font-size="14.00" fill="#000000">X[0] &lt;= 8.371</text>
<text text-anchor="middle" x="548.7678" y="-803.4" font-family="Times,serif" font-size="14.00" fill="#000000">entropy = 0.906</text>
<text text-anchor="middle" x="548.7678" y="-786.6" font-family="Times,serif" font-size="14.00" fill="#000000">samples = 410</text>
<text text-anchor="middle" x="548.7678" y="-769.8" font-family="Times,serif" font-size="14.00" fill="#000000">value = [0, 132, 278]</text>
</g>
<!-- 2&#45;&gt;4 -->
<g id="edge4" class="edge">
<title>2-&gt;4</title>
<path fill="none" stroke="#000000" d="M548.7678,-872.7528C548.7678,-864.42 548.7678,-855.4845 548.7678,-846.8137"/>
<polygon fill="#000000" stroke="#000000" points="552.2679,-846.8084 548.7678,-836.8085 545.2679,-846.8085 552.2679,-846.8084"/>
</g>
<!-- 5 -->
<g id="node6" class="node">
<title>5</title>
<polygon fill="none" stroke="#000000" points="397.8042,-725.7003 271.7314,-725.7003 271.7314,-650.2997 397.8042,-650.2997 397.8042,-725.7003"/>
<text text-anchor="middle" x="334.7678" y="-709" font-family="Times,serif" font-size="14.00" fill="#000000">X[1] &lt;= -0.022</text>
<text text-anchor="middle" x="334.7678" y="-692.2" font-family="Times,serif" font-size="14.00" fill="#000000">entropy = 0.789</text>
<text text-anchor="middle" x="334.7678" y="-675.4" font-family="Times,serif" font-size="14.00" fill="#000000">samples = 343</text>
<text text-anchor="middle" x="334.7678" y="-658.6" font-family="Times,serif" font-size="14.00" fill="#000000">value = [0, 81, 262]</text>
</g>
<!-- 4&#45;&gt;5 -->
<g id="edge5" class="edge">
<title>4-&gt;5</title>
<path fill="none" stroke="#000000" d="M482.2299,-764.6252C458.4035,-752.2443 431.4379,-738.2323 407.1419,-725.6075"/>
<polygon fill="#000000" stroke="#000000" points="408.4604,-722.3483 397.9731,-720.8431 405.2328,-728.5598 408.4604,-722.3483"/>
</g>
<!-- 22 -->
<g id="node23" class="node">
<title>22</title>
<polygon fill="none" stroke="#000000" points="608.3043,-725.7003 489.2313,-725.7003 489.2313,-650.2997 608.3043,-650.2997 608.3043,-725.7003"/>
<text text-anchor="middle" x="548.7678" y="-709" font-family="Times,serif" font-size="14.00" fill="#000000">X[1] &lt;= -0.043</text>
<text text-anchor="middle" x="548.7678" y="-692.2" font-family="Times,serif" font-size="14.00" fill="#000000">entropy = 0.793</text>
<text text-anchor="middle" x="548.7678" y="-675.4" font-family="Times,serif" font-size="14.00" fill="#000000">samples = 67</text>
<text text-anchor="middle" x="548.7678" y="-658.6" font-family="Times,serif" font-size="14.00" fill="#000000">value = [0, 51, 16]</text>
</g>
<!-- 4&#45;&gt;22 -->
<g id="edge22" class="edge">
<title>4-&gt;22</title>
<path fill="none" stroke="#000000" d="M548.7678,-761.5528C548.7678,-753.22 548.7678,-744.2845 548.7678,-735.6137"/>
<polygon fill="#000000" stroke="#000000" points="552.2679,-735.6084 548.7678,-725.6085 545.2679,-735.6085 552.2679,-735.6084"/>
</g>
<!-- 6 -->
<g id="node7" class="node">
<title>6</title>
<polygon fill="none" stroke="#000000" points="252.8044,-606.2014 140.7312,-606.2014 140.7312,-547.3986 252.8044,-547.3986 252.8044,-606.2014"/>
<text text-anchor="middle" x="196.7678" y="-589.4" font-family="Times,serif" font-size="14.00" fill="#000000">entropy = 0.0</text>
<text text-anchor="middle" x="196.7678" y="-572.6" font-family="Times,serif" font-size="14.00" fill="#000000">samples = 73</text>
<text text-anchor="middle" x="196.7678" y="-555.8" font-family="Times,serif" font-size="14.00" fill="#000000">value = [0, 0, 73]</text>
</g>
<!-- 5&#45;&gt;6 -->
<g id="edge6" class="edge">
<title>5-&gt;6</title>
<path fill="none" stroke="#000000" d="M288.0473,-650.3528C273.0049,-638.2316 256.38,-624.8353 241.4853,-612.8332"/>
<polygon fill="#000000" stroke="#000000" points="243.3923,-609.875 233.4096,-606.3258 239.0002,-615.3256 243.3923,-609.875"/>
</g>
<!-- 7 -->
<g id="node8" class="node">
<title>7</title>
<polygon fill="none" stroke="#000000" points="397.8042,-614.5003 271.7314,-614.5003 271.7314,-539.0997 397.8042,-539.0997 397.8042,-614.5003"/>
<text text-anchor="middle" x="334.7678" y="-597.8" font-family="Times,serif" font-size="14.00" fill="#000000">X[0] &lt;= 4.315</text>
<text text-anchor="middle" x="334.7678" y="-581" font-family="Times,serif" font-size="14.00" fill="#000000">entropy = 0.881</text>
<text text-anchor="middle" x="334.7678" y="-564.2" font-family="Times,serif" font-size="14.00" fill="#000000">samples = 270</text>
<text text-anchor="middle" x="334.7678" y="-547.4" font-family="Times,serif" font-size="14.00" fill="#000000">value = [0, 81, 189]</text>
</g>
<!-- 5&#45;&gt;7 -->
<g id="edge7" class="edge">
<title>5-&gt;7</title>
<path fill="none" stroke="#000000" d="M334.7678,-650.3528C334.7678,-642.02 334.7678,-633.0845 334.7678,-624.4137"/>
<polygon fill="#000000" stroke="#000000" points="338.2679,-624.4084 334.7678,-614.4085 331.2679,-624.4085 338.2679,-624.4084"/>
</g>
<!-- 8 -->
<g id="node9" class="node">
<title>8</title>
<polygon fill="none" stroke="#000000" points="328.8042,-503.3003 202.7314,-503.3003 202.7314,-427.8997 328.8042,-427.8997 328.8042,-503.3003"/>
<text text-anchor="middle" x="265.7678" y="-486.6" font-family="Times,serif" font-size="14.00" fill="#000000">X[1] &lt;= -0.003</text>
<text text-anchor="middle" x="265.7678" y="-469.8" font-family="Times,serif" font-size="14.00" fill="#000000">entropy = 0.746</text>
<text text-anchor="middle" x="265.7678" y="-453" font-family="Times,serif" font-size="14.00" fill="#000000">samples = 240</text>
<text text-anchor="middle" x="265.7678" y="-436.2" font-family="Times,serif" font-size="14.00" fill="#000000">value = [0, 51, 189]</text>
</g>
<!-- 7&#45;&gt;8 -->
<g id="edge8" class="edge">
<title>7-&gt;8</title>
<path fill="none" stroke="#000000" d="M311.4075,-539.1528C305.956,-530.3671 300.0888,-520.9115 294.4366,-511.8025"/>
<polygon fill="#000000" stroke="#000000" points="297.3505,-509.8602 289.104,-503.2085 291.4025,-513.551 297.3505,-509.8602"/>
</g>
<!-- 21 -->
<g id="node22" class="node">
<title>21</title>
<polygon fill="none" stroke="#000000" points="459.8044,-495.0014 347.7312,-495.0014 347.7312,-436.1986 459.8044,-436.1986 459.8044,-495.0014"/>
<text text-anchor="middle" x="403.7678" y="-478.2" font-family="Times,serif" font-size="14.00" fill="#000000">entropy = 0.0</text>
<text text-anchor="middle" x="403.7678" y="-461.4" font-family="Times,serif" font-size="14.00" fill="#000000">samples = 30</text>
<text text-anchor="middle" x="403.7678" y="-444.6" font-family="Times,serif" font-size="14.00" fill="#000000">value = [0, 30, 0]</text>
</g>
<!-- 7&#45;&gt;21 -->
<g id="edge21" class="edge">
<title>7-&gt;21</title>
<path fill="none" stroke="#000000" d="M358.1281,-539.1528C365.2314,-527.705 373.0406,-515.1199 380.1601,-503.646"/>
<polygon fill="#000000" stroke="#000000" points="383.1484,-505.4683 385.4469,-495.1258 377.2004,-501.7776 383.1484,-505.4683"/>
</g>
<!-- 9 -->
<g id="node10" class="node">
<title>9</title>
<polygon fill="none" stroke="#000000" points="258.8042,-392.1003 132.7314,-392.1003 132.7314,-316.6997 258.8042,-316.6997 258.8042,-392.1003"/>
<text text-anchor="middle" x="195.7678" y="-375.4" font-family="Times,serif" font-size="14.00" fill="#000000">X[0] &lt;= 3.128</text>
<text text-anchor="middle" x="195.7678" y="-358.6" font-family="Times,serif" font-size="14.00" fill="#000000">entropy = 0.439</text>
<text text-anchor="middle" x="195.7678" y="-341.8" font-family="Times,serif" font-size="14.00" fill="#000000">samples = 176</text>
<text text-anchor="middle" x="195.7678" y="-325" font-family="Times,serif" font-size="14.00" fill="#000000">value = [0, 16, 160]</text>
</g>
<!-- 8&#45;&gt;9 -->
<g id="edge9" class="edge">
<title>8-&gt;9</title>
<path fill="none" stroke="#000000" d="M242.069,-427.9528C236.5385,-419.1671 230.5862,-409.7115 224.8521,-400.6025"/>
<polygon fill="#000000" stroke="#000000" points="227.7316,-398.6067 219.4422,-392.0085 221.8076,-402.3359 227.7316,-398.6067"/>
</g>
<!-- 14 -->
<g id="node15" class="node">
<title>14</title>
<polygon fill="none" stroke="#000000" points="396.3043,-392.1003 277.2313,-392.1003 277.2313,-316.6997 396.3043,-316.6997 396.3043,-392.1003"/>
<text text-anchor="middle" x="336.7678" y="-375.4" font-family="Times,serif" font-size="14.00" fill="#000000">X[0] &lt;= 0.453</text>
<text text-anchor="middle" x="336.7678" y="-358.6" font-family="Times,serif" font-size="14.00" fill="#000000">entropy = 0.994</text>
<text text-anchor="middle" x="336.7678" y="-341.8" font-family="Times,serif" font-size="14.00" fill="#000000">samples = 64</text>
<text text-anchor="middle" x="336.7678" y="-325" font-family="Times,serif" font-size="14.00" fill="#000000">value = [0, 35, 29]</text>
</g>
<!-- 8&#45;&gt;14 -->
<g id="edge14" class="edge">
<title>8-&gt;14</title>
<path fill="none" stroke="#000000" d="M289.8052,-427.9528C295.4147,-419.1671 301.452,-409.7115 307.268,-400.6025"/>
<polygon fill="#000000" stroke="#000000" points="310.3236,-402.3205 312.7552,-392.0085 304.4237,-398.5534 310.3236,-402.3205"/>
</g>
<!-- 10 -->
<g id="node11" class="node">
<title>10</title>
<polygon fill="none" stroke="#000000" points="119.3043,-272.6014 .2313,-272.6014 .2313,-213.7986 119.3043,-213.7986 119.3043,-272.6014"/>
<text text-anchor="middle" x="59.7678" y="-255.8" font-family="Times,serif" font-size="14.00" fill="#000000">entropy = 0.0</text>
<text text-anchor="middle" x="59.7678" y="-239" font-family="Times,serif" font-size="14.00" fill="#000000">samples = 122</text>
<text text-anchor="middle" x="59.7678" y="-222.2" font-family="Times,serif" font-size="14.00" fill="#000000">value = [0, 0, 122]</text>
</g>
<!-- 9&#45;&gt;10 -->
<g id="edge10" class="edge">
<title>9-&gt;10</title>
<path fill="none" stroke="#000000" d="M149.7244,-316.7528C134.9,-304.6316 118.516,-291.2353 103.8372,-279.2332"/>
<polygon fill="#000000" stroke="#000000" points="105.8356,-276.3462 95.8785,-272.7258 101.4047,-281.7653 105.8356,-276.3462"/>
</g>
<!-- 11 -->
<g id="node12" class="node">
<title>11</title>
<polygon fill="none" stroke="#000000" points="257.3043,-280.9003 138.2313,-280.9003 138.2313,-205.4997 257.3043,-205.4997 257.3043,-280.9003"/>
<text text-anchor="middle" x="197.7678" y="-264.2" font-family="Times,serif" font-size="14.00" fill="#000000">X[1] &lt;= -0.016</text>
<text text-anchor="middle" x="197.7678" y="-247.4" font-family="Times,serif" font-size="14.00" fill="#000000">entropy = 0.877</text>
<text text-anchor="middle" x="197.7678" y="-230.6" font-family="Times,serif" font-size="14.00" fill="#000000">samples = 54</text>
<text text-anchor="middle" x="197.7678" y="-213.8" font-family="Times,serif" font-size="14.00" fill="#000000">value = [0, 16, 38]</text>
</g>
<!-- 9&#45;&gt;11 -->
<g id="edge11" class="edge">
<title>9-&gt;11</title>
<path fill="none" stroke="#000000" d="M196.4449,-316.7528C196.5948,-308.42 196.7555,-299.4845 196.9114,-290.8137"/>
<polygon fill="#000000" stroke="#000000" points="200.4109,-290.8698 197.0914,-280.8085 193.412,-290.7439 200.4109,-290.8698"/>
</g>
<!-- 12 -->
<g id="node13" class="node">
<title>12</title>
<polygon fill="none" stroke="#000000" points="123.8044,-161.4014 11.7312,-161.4014 11.7312,-102.5986 123.8044,-102.5986 123.8044,-161.4014"/>
<text text-anchor="middle" x="67.7678" y="-144.6" font-family="Times,serif" font-size="14.00" fill="#000000">entropy = 0.0</text>
<text text-anchor="middle" x="67.7678" y="-127.8" font-family="Times,serif" font-size="14.00" fill="#000000">samples = 38</text>
<text text-anchor="middle" x="67.7678" y="-111" font-family="Times,serif" font-size="14.00" fill="#000000">value = [0, 0, 38]</text>
</g>
<!-- 11&#45;&gt;12 -->
<g id="edge12" class="edge">
<title>11-&gt;12</title>
<path fill="none" stroke="#000000" d="M153.7557,-205.5528C139.5854,-193.4316 123.9242,-180.0353 109.893,-168.0332"/>
<polygon fill="#000000" stroke="#000000" points="112.1597,-165.3664 102.2854,-161.5258 107.6095,-170.6858 112.1597,-165.3664"/>
</g>
<!-- 13 -->
<g id="node14" class="node">
<title>13</title>
<polygon fill="none" stroke="#000000" points="254.8044,-161.4014 142.7312,-161.4014 142.7312,-102.5986 254.8044,-102.5986 254.8044,-161.4014"/>
<text text-anchor="middle" x="198.7678" y="-144.6" font-family="Times,serif" font-size="14.00" fill="#000000">entropy = 0.0</text>
<text text-anchor="middle" x="198.7678" y="-127.8" font-family="Times,serif" font-size="14.00" fill="#000000">samples = 16</text>
<text text-anchor="middle" x="198.7678" y="-111" font-family="Times,serif" font-size="14.00" fill="#000000">value = [0, 16, 0]</text>
</g>
<!-- 11&#45;&gt;13 -->
<g id="edge13" class="edge">
<title>11-&gt;13</title>
<path fill="none" stroke="#000000" d="M198.1064,-205.5528C198.2043,-194.6662 198.3114,-182.751 198.4104,-171.7411"/>
<polygon fill="#000000" stroke="#000000" points="201.9121,-171.5569 198.5023,-161.5258 194.9124,-171.4939 201.9121,-171.5569"/>
</g>
<!-- 15 -->
<g id="node16" class="node">
<title>15</title>
<polygon fill="none" stroke="#000000" points="391.8044,-280.9003 279.7312,-280.9003 279.7312,-205.4997 391.8044,-205.4997 391.8044,-280.9003"/>
<text text-anchor="middle" x="335.7678" y="-264.2" font-family="Times,serif" font-size="14.00" fill="#000000">X[1] &lt;= -0.001</text>
<text text-anchor="middle" x="335.7678" y="-247.4" font-family="Times,serif" font-size="14.00" fill="#000000">entropy = 0.533</text>
<text text-anchor="middle" x="335.7678" y="-230.6" font-family="Times,serif" font-size="14.00" fill="#000000">samples = 33</text>
<text text-anchor="middle" x="335.7678" y="-213.8" font-family="Times,serif" font-size="14.00" fill="#000000">value = [0, 4, 29]</text>
</g>
<!-- 14&#45;&gt;15 -->
<g id="edge15" class="edge">
<title>14-&gt;15</title>
<path fill="none" stroke="#000000" d="M336.4292,-316.7528C336.3543,-308.42 336.274,-299.4845 336.196,-290.8137"/>
<polygon fill="#000000" stroke="#000000" points="339.6959,-290.7766 336.106,-280.8085 332.6962,-290.8396 339.6959,-290.7766"/>
</g>
<!-- 20 -->
<g id="node21" class="node">
<title>20</title>
<polygon fill="none" stroke="#000000" points="522.8044,-272.6014 410.7312,-272.6014 410.7312,-213.7986 522.8044,-213.7986 522.8044,-272.6014"/>
<text text-anchor="middle" x="466.7678" y="-255.8" font-family="Times,serif" font-size="14.00" fill="#000000">entropy = 0.0</text>
<text text-anchor="middle" x="466.7678" y="-239" font-family="Times,serif" font-size="14.00" fill="#000000">samples = 31</text>
<text text-anchor="middle" x="466.7678" y="-222.2" font-family="Times,serif" font-size="14.00" fill="#000000">value = [0, 31, 0]</text>
</g>
<!-- 14&#45;&gt;20 -->
<g id="edge20" class="edge">
<title>14-&gt;20</title>
<path fill="none" stroke="#000000" d="M380.7799,-316.7528C394.9502,-304.6316 410.6114,-291.2353 424.6426,-279.2332"/>
<polygon fill="#000000" stroke="#000000" points="426.9261,-281.8858 432.2502,-272.7258 422.3759,-276.5664 426.9261,-281.8858"/>
</g>
<!-- 16 -->
<g id="node17" class="node">
<title>16</title>
<polygon fill="none" stroke="#000000" points="390.8044,-161.4014 278.7312,-161.4014 278.7312,-102.5986 390.8044,-102.5986 390.8044,-161.4014"/>
<text text-anchor="middle" x="334.7678" y="-144.6" font-family="Times,serif" font-size="14.00" fill="#000000">entropy = 0.0</text>
<text text-anchor="middle" x="334.7678" y="-127.8" font-family="Times,serif" font-size="14.00" fill="#000000">samples = 25</text>
<text text-anchor="middle" x="334.7678" y="-111" font-family="Times,serif" font-size="14.00" fill="#000000">value = [0, 0, 25]</text>
</g>
<!-- 15&#45;&gt;16 -->
<g id="edge16" class="edge">
<title>15-&gt;16</title>
<path fill="none" stroke="#000000" d="M335.4292,-205.5528C335.3313,-194.6662 335.2242,-182.751 335.1252,-171.7411"/>
<polygon fill="#000000" stroke="#000000" points="338.6232,-171.4939 335.0333,-161.5258 331.6235,-171.5569 338.6232,-171.4939"/>
</g>
<!-- 17 -->
<g id="node18" class="node">
<title>17</title>
<polygon fill="none" stroke="#000000" points="514.3044,-169.7003 409.2312,-169.7003 409.2312,-94.2997 514.3044,-94.2997 514.3044,-169.7003"/>
<text text-anchor="middle" x="461.7678" y="-153" font-family="Times,serif" font-size="14.00" fill="#000000">X[1] &lt;= -0.001</text>
<text text-anchor="middle" x="461.7678" y="-136.2" font-family="Times,serif" font-size="14.00" fill="#000000">entropy = 1.0</text>
<text text-anchor="middle" x="461.7678" y="-119.4" font-family="Times,serif" font-size="14.00" fill="#000000">samples = 8</text>
<text text-anchor="middle" x="461.7678" y="-102.6" font-family="Times,serif" font-size="14.00" fill="#000000">value = [0, 4, 4]</text>
</g>
<!-- 15&#45;&gt;17 -->
<g id="edge17" class="edge">
<title>15-&gt;17</title>
<path fill="none" stroke="#000000" d="M378.4257,-205.5528C389.099,-196.1331 400.645,-185.9433 411.644,-176.2362"/>
<polygon fill="#000000" stroke="#000000" points="413.9721,-178.8497 419.1539,-169.6085 409.3402,-173.6013 413.9721,-178.8497"/>
</g>
<!-- 18 -->
<g id="node19" class="node">
<title>18</title>
<polygon fill="none" stroke="#000000" points="452.3044,-58.6014 347.2312,-58.6014 347.2312,.2014 452.3044,.2014 452.3044,-58.6014"/>
<text text-anchor="middle" x="399.7678" y="-41.8" font-family="Times,serif" font-size="14.00" fill="#000000">entropy = 0.0</text>
<text text-anchor="middle" x="399.7678" y="-25" font-family="Times,serif" font-size="14.00" fill="#000000">samples = 4</text>
<text text-anchor="middle" x="399.7678" y="-8.2" font-family="Times,serif" font-size="14.00" fill="#000000">value = [0, 4, 0]</text>
</g>
<!-- 17&#45;&gt;18 -->
<g id="edge18" class="edge">
<title>17-&gt;18</title>
<path fill="none" stroke="#000000" d="M439.0333,-94.3048C433.6938,-85.4515 428.0013,-76.013 422.6551,-67.1487"/>
<polygon fill="#000000" stroke="#000000" points="425.6119,-65.2742 417.4502,-58.5186 419.6177,-68.8894 425.6119,-65.2742"/>
</g>
<!-- 19 -->
<g id="node20" class="node">
<title>19</title>
<polygon fill="none" stroke="#000000" points="576.3044,-58.6014 471.2312,-58.6014 471.2312,.2014 576.3044,.2014 576.3044,-58.6014"/>
<text text-anchor="middle" x="523.7678" y="-41.8" font-family="Times,serif" font-size="14.00" fill="#000000">entropy = 0.0</text>
<text text-anchor="middle" x="523.7678" y="-25" font-family="Times,serif" font-size="14.00" fill="#000000">samples = 4</text>
<text text-anchor="middle" x="523.7678" y="-8.2" font-family="Times,serif" font-size="14.00" fill="#000000">value = [0, 0, 4]</text>
</g>
<!-- 17&#45;&gt;19 -->
<g id="edge19" class="edge">
<title>17-&gt;19</title>
<path fill="none" stroke="#000000" d="M484.5023,-94.3048C489.8418,-85.4515 495.5343,-76.013 500.8805,-67.1487"/>
<polygon fill="#000000" stroke="#000000" points="503.9179,-68.8894 506.0854,-58.5186 497.9237,-65.2742 503.9179,-68.8894"/>
</g>
<!-- 23 -->
<g id="node24" class="node">
<title>23</title>
<polygon fill="none" stroke="#000000" points="528.8044,-606.2014 416.7312,-606.2014 416.7312,-547.3986 528.8044,-547.3986 528.8044,-606.2014"/>
<text text-anchor="middle" x="472.7678" y="-589.4" font-family="Times,serif" font-size="14.00" fill="#000000">entropy = 0.0</text>
<text text-anchor="middle" x="472.7678" y="-572.6" font-family="Times,serif" font-size="14.00" fill="#000000">samples = 16</text>
<text text-anchor="middle" x="472.7678" y="-555.8" font-family="Times,serif" font-size="14.00" fill="#000000">value = [0, 0, 16]</text>
</g>
<!-- 22&#45;&gt;23 -->
<g id="edge23" class="edge">
<title>22-&gt;23</title>
<path fill="none" stroke="#000000" d="M523.0377,-650.3528C515.2137,-638.905 506.6123,-626.3199 498.7705,-614.846"/>
<polygon fill="#000000" stroke="#000000" points="501.4796,-612.6069 492.9473,-606.3258 495.7003,-616.5568 501.4796,-612.6069"/>
</g>
<!-- 24 -->
<g id="node25" class="node">
<title>24</title>
<polygon fill="none" stroke="#000000" points="659.8044,-606.2014 547.7312,-606.2014 547.7312,-547.3986 659.8044,-547.3986 659.8044,-606.2014"/>
<text text-anchor="middle" x="603.7678" y="-589.4" font-family="Times,serif" font-size="14.00" fill="#000000">entropy = 0.0</text>
<text text-anchor="middle" x="603.7678" y="-572.6" font-family="Times,serif" font-size="14.00" fill="#000000">samples = 51</text>
<text text-anchor="middle" x="603.7678" y="-555.8" font-family="Times,serif" font-size="14.00" fill="#000000">value = [0, 51, 0]</text>
</g>
<!-- 22&#45;&gt;24 -->
<g id="edge24" class="edge">
<title>22-&gt;24</title>
<path fill="none" stroke="#000000" d="M567.3883,-650.3528C572.9394,-639.1295 579.0312,-626.813 584.6156,-615.5222"/>
<polygon fill="#000000" stroke="#000000" points="587.868,-616.8411 589.1642,-606.3258 581.5935,-613.7377 587.868,-616.8411"/>
</g>
<!-- 26 -->
<g id="node27" class="node">
<title>26</title>
<polygon fill="none" stroke="#000000" points="791.8042,-836.9003 665.7314,-836.9003 665.7314,-761.4997 791.8042,-761.4997 791.8042,-836.9003"/>
<text text-anchor="middle" x="728.7678" y="-820.2" font-family="Times,serif" font-size="14.00" fill="#000000">X[1] &lt;= 0.005</text>
<text text-anchor="middle" x="728.7678" y="-803.4" font-family="Times,serif" font-size="14.00" fill="#000000">entropy = 0.792</text>
<text text-anchor="middle" x="728.7678" y="-786.6" font-family="Times,serif" font-size="14.00" fill="#000000">samples = 257</text>
<text text-anchor="middle" x="728.7678" y="-769.8" font-family="Times,serif" font-size="14.00" fill="#000000">value = [56, 200, 1]</text>
</g>
<!-- 25&#45;&gt;26 -->
<g id="edge26" class="edge">
<title>25-&gt;26</title>
<path fill="none" stroke="#000000" d="M728.7678,-872.7528C728.7678,-864.42 728.7678,-855.4845 728.7678,-846.8137"/>
<polygon fill="#000000" stroke="#000000" points="732.2679,-846.8084 728.7678,-836.8085 725.2679,-846.8085 732.2679,-846.8084"/>
</g>
<!-- 31 -->
<g id="node32" class="node">
<title>31</title>
<polygon fill="none" stroke="#000000" points="1083.8042,-836.9003 957.7314,-836.9003 957.7314,-761.4997 1083.8042,-761.4997 1083.8042,-836.9003"/>
<text text-anchor="middle" x="1020.7678" y="-820.2" font-family="Times,serif" font-size="14.00" fill="#000000">X[0] &lt;= 3.138</text>
<text text-anchor="middle" x="1020.7678" y="-803.4" font-family="Times,serif" font-size="14.00" fill="#000000">entropy = 0.626</text>
<text text-anchor="middle" x="1020.7678" y="-786.6" font-family="Times,serif" font-size="14.00" fill="#000000">samples = 291</text>
<text text-anchor="middle" x="1020.7678" y="-769.8" font-family="Times,serif" font-size="14.00" fill="#000000">value = [250, 39, 2]</text>
</g>
<!-- 25&#45;&gt;31 -->
<g id="edge31" class="edge">
<title>25-&gt;31</title>
<path fill="none" stroke="#000000" d="M795.3925,-885.0279C840.9022,-867.6967 901.1954,-844.7358 947.9676,-826.9239"/>
<polygon fill="#000000" stroke="#000000" points="949.3331,-830.1492 957.4327,-823.3194 946.8418,-823.6075 949.3331,-830.1492"/>
</g>
<!-- 27 -->
<g id="node28" class="node">
<title>27</title>
<polygon fill="none" stroke="#000000" points="761.8044,-717.4014 649.7312,-717.4014 649.7312,-658.5986 761.8044,-658.5986 761.8044,-717.4014"/>
<text text-anchor="middle" x="705.7678" y="-700.6" font-family="Times,serif" font-size="14.00" fill="#000000">entropy = 0.0</text>
<text text-anchor="middle" x="705.7678" y="-683.8" font-family="Times,serif" font-size="14.00" fill="#000000">samples = 56</text>
<text text-anchor="middle" x="705.7678" y="-667" font-family="Times,serif" font-size="14.00" fill="#000000">value = [56, 0, 0]</text>
</g>
<!-- 26&#45;&gt;27 -->
<g id="edge27" class="edge">
<title>26-&gt;27</title>
<path fill="none" stroke="#000000" d="M720.981,-761.5528C718.7061,-750.554 716.214,-738.5052 713.9173,-727.4009"/>
<polygon fill="#000000" stroke="#000000" points="717.3278,-726.6096 711.8748,-717.5258 710.4729,-728.0275 717.3278,-726.6096"/>
</g>
<!-- 28 -->
<g id="node29" class="node">
<title>28</title>
<polygon fill="none" stroke="#000000" points="899.3043,-725.7003 780.2313,-725.7003 780.2313,-650.2997 899.3043,-650.2997 899.3043,-725.7003"/>
<text text-anchor="middle" x="839.7678" y="-709" font-family="Times,serif" font-size="14.00" fill="#000000">X[0] &lt;= 10.235</text>
<text text-anchor="middle" x="839.7678" y="-692.2" font-family="Times,serif" font-size="14.00" fill="#000000">entropy = 0.045</text>
<text text-anchor="middle" x="839.7678" y="-675.4" font-family="Times,serif" font-size="14.00" fill="#000000">samples = 201</text>
<text text-anchor="middle" x="839.7678" y="-658.6" font-family="Times,serif" font-size="14.00" fill="#000000">value = [0, 200, 1]</text>
</g>
<!-- 26&#45;&gt;28 -->
<g id="edge28" class="edge">
<title>26-&gt;28</title>
<path fill="none" stroke="#000000" d="M766.3473,-761.5528C775.5692,-752.3142 785.5306,-742.3349 795.0516,-732.7968"/>
<polygon fill="#000000" stroke="#000000" points="797.6393,-735.1586 802.227,-725.6085 792.6851,-730.2133 797.6393,-735.1586"/>
</g>
<!-- 29 -->
<g id="node30" class="node">
<title>29</title>
<polygon fill="none" stroke="#000000" points="797.3043,-606.2014 678.2313,-606.2014 678.2313,-547.3986 797.3043,-547.3986 797.3043,-606.2014"/>
<text text-anchor="middle" x="737.7678" y="-589.4" font-family="Times,serif" font-size="14.00" fill="#000000">entropy = 0.0</text>
<text text-anchor="middle" x="737.7678" y="-572.6" font-family="Times,serif" font-size="14.00" fill="#000000">samples = 200</text>
<text text-anchor="middle" x="737.7678" y="-555.8" font-family="Times,serif" font-size="14.00" fill="#000000">value = [0, 200, 0]</text>
</g>
<!-- 28&#45;&gt;29 -->
<g id="edge29" class="edge">
<title>28-&gt;29</title>
<path fill="none" stroke="#000000" d="M805.2353,-650.3528C794.4258,-638.5683 782.5107,-625.5786 771.7402,-613.8366"/>
<polygon fill="#000000" stroke="#000000" points="774.1898,-611.3293 764.8509,-606.3258 769.0313,-616.0611 774.1898,-611.3293"/>
</g>
<!-- 30 -->
<g id="node31" class="node">
<title>30</title>
<polygon fill="none" stroke="#000000" points="921.3044,-606.2014 816.2312,-606.2014 816.2312,-547.3986 921.3044,-547.3986 921.3044,-606.2014"/>
<text text-anchor="middle" x="868.7678" y="-589.4" font-family="Times,serif" font-size="14.00" fill="#000000">entropy = 0.0</text>
<text text-anchor="middle" x="868.7678" y="-572.6" font-family="Times,serif" font-size="14.00" fill="#000000">samples = 1</text>
<text text-anchor="middle" x="868.7678" y="-555.8" font-family="Times,serif" font-size="14.00" fill="#000000">value = [0, 0, 1]</text>
</g>
<!-- 28&#45;&gt;30 -->
<g id="edge30" class="edge">
<title>28-&gt;30</title>
<path fill="none" stroke="#000000" d="M849.5859,-650.3528C852.4543,-639.354 855.5965,-627.3052 858.4924,-616.2009"/>
<polygon fill="#000000" stroke="#000000" points="861.9309,-616.8855 861.0677,-606.3258 855.1574,-615.1189 861.9309,-616.8855"/>
</g>
<!-- 32 -->
<g id="node33" class="node">
<title>32</title>
<polygon fill="none" stroke="#000000" points="1080.3043,-725.7003 961.2313,-725.7003 961.2313,-650.2997 1080.3043,-650.2997 1080.3043,-725.7003"/>
<text text-anchor="middle" x="1020.7678" y="-709" font-family="Times,serif" font-size="14.00" fill="#000000">X[0] &lt;= 1.002</text>
<text text-anchor="middle" x="1020.7678" y="-692.2" font-family="Times,serif" font-size="14.00" fill="#000000">entropy = 0.121</text>
<text text-anchor="middle" x="1020.7678" y="-675.4" font-family="Times,serif" font-size="14.00" fill="#000000">samples = 121</text>
<text text-anchor="middle" x="1020.7678" y="-658.6" font-family="Times,serif" font-size="14.00" fill="#000000">value = [119, 0, 2]</text>
</g>
<!-- 31&#45;&gt;32 -->
<g id="edge32" class="edge">
<title>31-&gt;32</title>
<path fill="none" stroke="#000000" d="M1020.7678,-761.5528C1020.7678,-753.22 1020.7678,-744.2845 1020.7678,-735.6137"/>
<polygon fill="#000000" stroke="#000000" points="1024.2679,-735.6084 1020.7678,-725.6085 1017.2679,-735.6085 1024.2679,-735.6084"/>
</g>
<!-- 35 -->
<g id="node36" class="node">
<title>35</title>
<polygon fill="none" stroke="#000000" points="1320.8042,-725.7003 1194.7314,-725.7003 1194.7314,-650.2997 1320.8042,-650.2997 1320.8042,-725.7003"/>
<text text-anchor="middle" x="1257.7678" y="-709" font-family="Times,serif" font-size="14.00" fill="#000000">X[1] &lt;= 0.016</text>
<text text-anchor="middle" x="1257.7678" y="-692.2" font-family="Times,serif" font-size="14.00" fill="#000000">entropy = 0.777</text>
<text text-anchor="middle" x="1257.7678" y="-675.4" font-family="Times,serif" font-size="14.00" fill="#000000">samples = 170</text>
<text text-anchor="middle" x="1257.7678" y="-658.6" font-family="Times,serif" font-size="14.00" fill="#000000">value = [131, 39, 0]</text>
</g>
<!-- 31&#45;&gt;35 -->
<g id="edge35" class="edge">
<title>31-&gt;35</title>
<path fill="none" stroke="#000000" d="M1083.9681,-769.5465C1115.0445,-754.9655 1152.6617,-737.3156 1184.9407,-722.1704"/>
<polygon fill="#000000" stroke="#000000" points="1186.7659,-725.1802 1194.3322,-717.7639 1183.7925,-718.843 1186.7659,-725.1802"/>
</g>
<!-- 33 -->
<g id="node34" class="node">
<title>33</title>
<polygon fill="none" stroke="#000000" points="1045.3044,-606.2014 940.2312,-606.2014 940.2312,-547.3986 1045.3044,-547.3986 1045.3044,-606.2014"/>
<text text-anchor="middle" x="992.7678" y="-589.4" font-family="Times,serif" font-size="14.00" fill="#000000">entropy = 0.0</text>
<text text-anchor="middle" x="992.7678" y="-572.6" font-family="Times,serif" font-size="14.00" fill="#000000">samples = 2</text>
<text text-anchor="middle" x="992.7678" y="-555.8" font-family="Times,serif" font-size="14.00" fill="#000000">value = [0, 0, 2]</text>
</g>
<!-- 32&#45;&gt;33 -->
<g id="edge33" class="edge">
<title>32-&gt;33</title>
<path fill="none" stroke="#000000" d="M1011.2883,-650.3528C1008.5188,-639.354 1005.4849,-627.3052 1002.6889,-616.2009"/>
<polygon fill="#000000" stroke="#000000" points="1006.0383,-615.1685 1000.2024,-606.3258 999.2501,-616.8778 1006.0383,-615.1685"/>
</g>
<!-- 34 -->
<g id="node35" class="node">
<title>34</title>
<polygon fill="none" stroke="#000000" points="1183.3043,-606.2014 1064.2313,-606.2014 1064.2313,-547.3986 1183.3043,-547.3986 1183.3043,-606.2014"/>
<text text-anchor="middle" x="1123.7678" y="-589.4" font-family="Times,serif" font-size="14.00" fill="#000000">entropy = 0.0</text>
<text text-anchor="middle" x="1123.7678" y="-572.6" font-family="Times,serif" font-size="14.00" fill="#000000">samples = 119</text>
<text text-anchor="middle" x="1123.7678" y="-555.8" font-family="Times,serif" font-size="14.00" fill="#000000">value = [119, 0, 0]</text>
</g>
<!-- 32&#45;&gt;34 -->
<g id="edge34" class="edge">
<title>32-&gt;34</title>
<path fill="none" stroke="#000000" d="M1055.6389,-650.3528C1066.5543,-638.5683 1078.5862,-625.5786 1089.4623,-613.8366"/>
<polygon fill="#000000" stroke="#000000" points="1092.1915,-616.0406 1096.4192,-606.3258 1087.0561,-611.2839 1092.1915,-616.0406"/>
</g>
<!-- 36 -->
<g id="node37" class="node">
<title>36</title>
<polygon fill="none" stroke="#000000" points="1313.8044,-606.2014 1201.7312,-606.2014 1201.7312,-547.3986 1313.8044,-547.3986 1313.8044,-606.2014"/>
<text text-anchor="middle" x="1257.7678" y="-589.4" font-family="Times,serif" font-size="14.00" fill="#000000">entropy = 0.0</text>
<text text-anchor="middle" x="1257.7678" y="-572.6" font-family="Times,serif" font-size="14.00" fill="#000000">samples = 36</text>
<text text-anchor="middle" x="1257.7678" y="-555.8" font-family="Times,serif" font-size="14.00" fill="#000000">value = [0, 36, 0]</text>
</g>
<!-- 35&#45;&gt;36 -->
<g id="edge36" class="edge">
<title>35-&gt;36</title>
<path fill="none" stroke="#000000" d="M1257.7678,-650.3528C1257.7678,-639.4662 1257.7678,-627.551 1257.7678,-616.5411"/>
<polygon fill="#000000" stroke="#000000" points="1261.2679,-616.3258 1257.7678,-606.3258 1254.2679,-616.3259 1261.2679,-616.3258"/>
</g>
<!-- 37 -->
<g id="node38" class="node">
<title>37</title>
<polygon fill="none" stroke="#000000" points="1451.3043,-614.5003 1332.2313,-614.5003 1332.2313,-539.0997 1451.3043,-539.0997 1451.3043,-614.5003"/>
<text text-anchor="middle" x="1391.7678" y="-597.8" font-family="Times,serif" font-size="14.00" fill="#000000">X[0] &lt;= 9.889</text>
<text text-anchor="middle" x="1391.7678" y="-581" font-family="Times,serif" font-size="14.00" fill="#000000">entropy = 0.155</text>
<text text-anchor="middle" x="1391.7678" y="-564.2" font-family="Times,serif" font-size="14.00" fill="#000000">samples = 134</text>
<text text-anchor="middle" x="1391.7678" y="-547.4" font-family="Times,serif" font-size="14.00" fill="#000000">value = [131, 3, 0]</text>
</g>
<!-- 35&#45;&gt;37 -->
<g id="edge37" class="edge">
<title>35-&gt;37</title>
<path fill="none" stroke="#000000" d="M1303.1341,-650.3528C1314.4851,-640.9331 1326.7642,-630.7433 1338.4615,-621.0362"/>
<polygon fill="#000000" stroke="#000000" points="1340.9879,-623.4879 1346.4482,-614.4085 1336.5177,-618.1011 1340.9879,-623.4879"/>
</g>
<!-- 38 -->
<g id="node39" class="node">
<title>38</title>
<polygon fill="none" stroke="#000000" points="1385.3043,-495.0014 1266.2313,-495.0014 1266.2313,-436.1986 1385.3043,-436.1986 1385.3043,-495.0014"/>
<text text-anchor="middle" x="1325.7678" y="-478.2" font-family="Times,serif" font-size="14.00" fill="#000000">entropy = 0.0</text>
<text text-anchor="middle" x="1325.7678" y="-461.4" font-family="Times,serif" font-size="14.00" fill="#000000">samples = 131</text>
<text text-anchor="middle" x="1325.7678" y="-444.6" font-family="Times,serif" font-size="14.00" fill="#000000">value = [131, 0, 0]</text>
</g>
<!-- 37&#45;&gt;38 -->
<g id="edge38" class="edge">
<title>37-&gt;38</title>
<path fill="none" stroke="#000000" d="M1369.4232,-539.1528C1362.6953,-527.8173 1355.3055,-515.3665 1348.5496,-503.9838"/>
<polygon fill="#000000" stroke="#000000" points="1351.4059,-501.9388 1343.2921,-495.1258 1345.3863,-505.5116 1351.4059,-501.9388"/>
</g>
<!-- 39 -->
<g id="node40" class="node">
<title>39</title>
<polygon fill="none" stroke="#000000" points="1509.3044,-495.0014 1404.2312,-495.0014 1404.2312,-436.1986 1509.3044,-436.1986 1509.3044,-495.0014"/>
<text text-anchor="middle" x="1456.7678" y="-478.2" font-family="Times,serif" font-size="14.00" fill="#000000">entropy = 0.0</text>
<text text-anchor="middle" x="1456.7678" y="-461.4" font-family="Times,serif" font-size="14.00" fill="#000000">samples = 3</text>
<text text-anchor="middle" x="1456.7678" y="-444.6" font-family="Times,serif" font-size="14.00" fill="#000000">value = [0, 3, 0]</text>
</g>
<!-- 37&#45;&gt;39 -->
<g id="edge39" class="edge">
<title>37-&gt;39</title>
<path fill="none" stroke="#000000" d="M1413.7738,-539.1528C1420.3998,-527.8173 1427.6777,-515.3665 1434.3312,-503.9838"/>
<polygon fill="#000000" stroke="#000000" points="1437.4842,-505.5254 1439.509,-495.1258 1431.4409,-501.9929 1437.4842,-505.5254"/>
</g>
</g>
</svg>