<?xml version="1.0" encoding="UTF-8" standalone="no"?><!DOCTYPE svg PUBLIC "-//W3C//DTD SVG 1.1//EN" "http://www.w3.org/Graphics/SVG/1.1/DTD/svg11.dtd"><!-- Generated by graphviz version 2.40.1 (20161225.0304)
 --><!-- Title: Tree Pages: 1 --><svg xmlns="http://www.w3.org/2000/svg" xmlns:xlink="http://www.w3.org/1999/xlink" width="1070pt" height="956pt" viewBox="0.00 0.00 1069.54 956.00">
<g id="graph0" class="graph" transform="scale(1 1) rotate(0) translate(4 952)">
<title>Tree</title>
<polygon fill="#ffffff" stroke="transparent" points="-4,4 -4,-952 1065.5356,-952 1065.5356,4 -4,4"/>
<!-- 0 -->
<g id="node1" class="node">
<title>0</title>
<polygon fill="none" stroke="#000000" points="600.8042,-948.1003 467.7314,-948.1003 467.7314,-872.6997 600.8042,-872.6997 600.8042,-948.1003"/>
<text text-anchor="middle" x="534.2678" y="-931.4" font-family="Times,serif" font-size="14.00" fill="#000000">X[1] &lt;= -0.041</text>
<text text-anchor="middle" x="534.2678" y="-914.6" font-family="Times,serif" font-size="14.00" fill="#000000">entropy = 1.0</text>
<text text-anchor="middle" x="534.2678" y="-897.8" font-family="Times,serif" font-size="14.00" fill="#000000">samples = 7233</text>
<text text-anchor="middle" x="534.2678" y="-881" font-family="Times,serif" font-size="14.00" fill="#000000">value = [3665, 3568]</text>
</g>
<!-- 1 -->
<g id="node2" class="node">
<title>1</title>
<polygon fill="none" stroke="#000000" points="524.8043,-836.9003 405.7313,-836.9003 405.7313,-761.4997 524.8043,-761.4997 524.8043,-836.9003"/>
<text text-anchor="middle" x="465.2678" y="-820.2" font-family="Times,serif" font-size="14.00" fill="#000000">X[0] &lt;= 0.5</text>
<text text-anchor="middle" x="465.2678" y="-803.4" font-family="Times,serif" font-size="14.00" fill="#000000">entropy = 0.149</text>
<text text-anchor="middle" x="465.2678" y="-786.6" font-family="Times,serif" font-size="14.00" fill="#000000">samples = 3657</text>
<text text-anchor="middle" x="465.2678" y="-769.8" font-family="Times,serif" font-size="14.00" fill="#000000">value = [3579, 78]</text>
</g>
<!-- 0&#45;&gt;1 -->
<g id="edge1" class="edge">
<title>0-&gt;1</title>
<path fill="none" stroke="#000000" d="M510.9075,-872.7528C505.456,-863.9671 499.5888,-854.5115 493.9366,-845.4025"/>
<polygon fill="#000000" stroke="#000000" points="496.8505,-843.4602 488.604,-836.8085 490.9025,-847.151 496.8505,-843.4602"/>
<text text-anchor="middle" x="482.9036" y="-856.9499" font-family="Times,serif" font-size="14.00" fill="#000000">True</text>
</g>
<!-- 16 -->
<g id="node17" class="node">
<title>16</title>
<polygon fill="none" stroke="#000000" points="662.8043,-836.9003 543.7313,-836.9003 543.7313,-761.4997 662.8043,-761.4997 662.8043,-836.9003"/>
<text text-anchor="middle" x="603.2678" y="-820.2" font-family="Times,serif" font-size="14.00" fill="#000000">X[0] &lt;= 0.57</text>
<text text-anchor="middle" x="603.2678" y="-803.4" font-family="Times,serif" font-size="14.00" fill="#000000">entropy = 0.164</text>
<text text-anchor="middle" x="603.2678" y="-786.6" font-family="Times,serif" font-size="14.00" fill="#000000">samples = 3576</text>
<text text-anchor="middle" x="603.2678" y="-769.8" font-family="Times,serif" font-size="14.00" fill="#000000">value = [86, 3490]</text>
</g>
<!-- 0&#45;&gt;16 -->
<g id="edge16" class="edge">
<title>0-&gt;16</title>
<path fill="none" stroke="#000000" d="M557.6281,-872.7528C563.0796,-863.9671 568.9468,-854.5115 574.599,-845.4025"/>
<polygon fill="#000000" stroke="#000000" points="577.6331,-847.151 579.9316,-836.8085 571.6851,-843.4602 577.6331,-847.151"/>
<text text-anchor="middle" x="585.632" y="-856.9499" font-family="Times,serif" font-size="14.00" fill="#000000">False</text>
</g>
<!-- 2 -->
<g id="node3" class="node">
<title>2</title>
<polygon fill="none" stroke="#000000" points="392.8043,-725.7003 273.7313,-725.7003 273.7313,-650.2997 392.8043,-650.2997 392.8043,-725.7003"/>
<text text-anchor="middle" x="333.2678" y="-709" font-family="Times,serif" font-size="14.00" fill="#000000">X[1] &lt;= -1.549</text>
<text text-anchor="middle" x="333.2678" y="-692.2" font-family="Times,serif" font-size="14.00" fill="#000000">entropy = 0.29</text>
<text text-anchor="middle" x="333.2678" y="-675.4" font-family="Times,serif" font-size="14.00" fill="#000000">samples = 1536</text>
<text text-anchor="middle" x="333.2678" y="-658.6" font-family="Times,serif" font-size="14.00" fill="#000000">value = [1458, 78]</text>
</g>
<!-- 1&#45;&gt;2 -->
<g id="edge2" class="edge">
<title>1-&gt;2</title>
<path fill="none" stroke="#000000" d="M420.5786,-761.5528C409.397,-752.1331 397.3012,-741.9433 385.7784,-732.2362"/>
<polygon fill="#000000" stroke="#000000" points="387.8139,-729.3745 377.911,-725.6085 383.3039,-734.7281 387.8139,-729.3745"/>
</g>
<!-- 15 -->
<g id="node16" class="node">
<title>15</title>
<polygon fill="none" stroke="#000000" points="523.3044,-717.4014 411.2312,-717.4014 411.2312,-658.5986 523.3044,-658.5986 523.3044,-717.4014"/>
<text text-anchor="middle" x="467.2678" y="-700.6" font-family="Times,serif" font-size="14.00" fill="#000000">entropy = 0.0</text>
<text text-anchor="middle" x="467.2678" y="-683.8" font-family="Times,serif" font-size="14.00" fill="#000000">samples = 2121</text>
<text text-anchor="middle" x="467.2678" y="-667" font-family="Times,serif" font-size="14.00" fill="#000000">value = [2121, 0]</text>
</g>
<!-- 1&#45;&gt;15 -->
<g id="edge15" class="edge">
<title>1-&gt;15</title>
<path fill="none" stroke="#000000" d="M465.9449,-761.5528C466.1407,-750.6662 466.355,-738.751 466.553,-727.7411"/>
<polygon fill="#000000" stroke="#000000" points="470.0563,-727.5872 466.7368,-717.5258 463.0574,-727.4612 470.0563,-727.5872"/>
</g>
<!-- 3 -->
<g id="node4" class="node">
<title>3</title>
<polygon fill="none" stroke="#000000" points="258.3044,-606.2014 146.2312,-606.2014 146.2312,-547.3986 258.3044,-547.3986 258.3044,-606.2014"/>
<text text-anchor="middle" x="202.2678" y="-589.4" font-family="Times,serif" font-size="14.00" fill="#000000">entropy = 0.0</text>
<text text-anchor="middle" x="202.2678" y="-572.6" font-family="Times,serif" font-size="14.00" fill="#000000">samples = 1067</text>
<text text-anchor="middle" x="202.2678" y="-555.8" font-family="Times,serif" font-size="14.00" fill="#000000">value = [1067, 0]</text>
</g>
<!-- 2&#45;&gt;3 -->
<g id="edge3" class="edge">
<title>2-&gt;3</title>
<path fill="none" stroke="#000000" d="M288.9172,-650.3528C274.6378,-638.2316 258.8562,-624.8353 244.717,-612.8332"/>
<polygon fill="#000000" stroke="#000000" points="246.9397,-610.129 237.0509,-606.3258 242.4096,-615.4656 246.9397,-610.129"/>
</g>
<!-- 4 -->
<g id="node5" class="node">
<title>4</title>
<polygon fill="none" stroke="#000000" points="389.3044,-614.5003 277.2312,-614.5003 277.2312,-539.0997 389.3044,-539.0997 389.3044,-614.5003"/>
<text text-anchor="middle" x="333.2678" y="-597.8" font-family="Times,serif" font-size="14.00" fill="#000000">X[0] &lt;= -0.904</text>
<text text-anchor="middle" x="333.2678" y="-581" font-family="Times,serif" font-size="14.00" fill="#000000">entropy = 0.649</text>
<text text-anchor="middle" x="333.2678" y="-564.2" font-family="Times,serif" font-size="14.00" fill="#000000">samples = 469</text>
<text text-anchor="middle" x="333.2678" y="-547.4" font-family="Times,serif" font-size="14.00" fill="#000000">value = [391, 78]</text>
</g>
<!-- 2&#45;&gt;4 -->
<g id="edge4" class="edge">
<title>2-&gt;4</title>
<path fill="none" stroke="#000000" d="M333.2678,-650.3528C333.2678,-642.02 333.2678,-633.0845 333.2678,-624.4137"/>
<polygon fill="#000000" stroke="#000000" points="336.7679,-624.4084 333.2678,-614.4085 329.7679,-624.4085 336.7679,-624.4084"/>
</g>
<!-- 5 -->
<g id="node6" class="node">
<title>5</title>
<polygon fill="none" stroke="#000000" points="268.8044,-495.0014 163.7312,-495.0014 163.7312,-436.1986 268.8044,-436.1986 268.8044,-495.0014"/>
<text text-anchor="middle" x="216.2678" y="-478.2" font-family="Times,serif" font-size="14.00" fill="#000000">entropy = 0.0</text>
<text text-anchor="middle" x="216.2678" y="-461.4" font-family="Times,serif" font-size="14.00" fill="#000000">samples = 296</text>
<text text-anchor="middle" x="216.2678" y="-444.6" font-family="Times,serif" font-size="14.00" fill="#000000">value = [296, 0]</text>
</g>
<!-- 4&#45;&gt;5 -->
<g id="edge5" class="edge">
<title>4-&gt;5</title>
<path fill="none" stroke="#000000" d="M293.6569,-539.1528C281.1398,-527.2561 267.3301,-514.131 254.8835,-502.3014"/>
<polygon fill="#000000" stroke="#000000" points="256.9933,-499.478 247.3337,-495.1258 252.1709,-504.552 256.9933,-499.478"/>
</g>
<!-- 6 -->
<g id="node7" class="node">
<title>6</title>
<polygon fill="none" stroke="#000000" points="392.8044,-503.3003 287.7312,-503.3003 287.7312,-427.8997 392.8044,-427.8997 392.8044,-503.3003"/>
<text text-anchor="middle" x="340.2678" y="-486.6" font-family="Times,serif" font-size="14.00" fill="#000000">X[1] &lt;= -0.231</text>
<text text-anchor="middle" x="340.2678" y="-469.8" font-family="Times,serif" font-size="14.00" fill="#000000">entropy = 0.993</text>
<text text-anchor="middle" x="340.2678" y="-453" font-family="Times,serif" font-size="14.00" fill="#000000">samples = 173</text>
<text text-anchor="middle" x="340.2678" y="-436.2" font-family="Times,serif" font-size="14.00" fill="#000000">value = [95, 78]</text>
</g>
<!-- 4&#45;&gt;6 -->
<g id="edge6" class="edge">
<title>4-&gt;6</title>
<path fill="none" stroke="#000000" d="M335.6377,-539.1528C336.1622,-530.82 336.7247,-521.8845 337.2705,-513.2137"/>
<polygon fill="#000000" stroke="#000000" points="340.7651,-513.4086 337.9004,-503.2085 333.7789,-512.9688 340.7651,-513.4086"/>
</g>
<!-- 7 -->
<g id="node8" class="node">
<title>7</title>
<polygon fill="none" stroke="#000000" points="272.8044,-392.1003 167.7312,-392.1003 167.7312,-316.6997 272.8044,-316.6997 272.8044,-392.1003"/>
<text text-anchor="middle" x="220.2678" y="-375.4" font-family="Times,serif" font-size="14.00" fill="#000000">X[0] &lt;= -0.769</text>
<text text-anchor="middle" x="220.2678" y="-358.6" font-family="Times,serif" font-size="14.00" fill="#000000">entropy = 0.906</text>
<text text-anchor="middle" x="220.2678" y="-341.8" font-family="Times,serif" font-size="14.00" fill="#000000">samples = 115</text>
<text text-anchor="middle" x="220.2678" y="-325" font-family="Times,serif" font-size="14.00" fill="#000000">value = [37, 78]</text>
</g>
<!-- 6&#45;&gt;7 -->
<g id="edge7" class="edge">
<title>6-&gt;7</title>
<path fill="none" stroke="#000000" d="M299.6413,-427.9528C289.5739,-418.6237 278.6914,-408.5392 268.3071,-398.9164"/>
<polygon fill="#000000" stroke="#000000" points="270.5664,-396.2383 260.8525,-392.0085 265.8084,-401.3727 270.5664,-396.2383"/>
</g>
<!-- 14 -->
<g id="node15" class="node">
<title>14</title>
<polygon fill="none" stroke="#000000" points="389.3045,-383.8014 291.2311,-383.8014 291.2311,-324.9986 389.3045,-324.9986 389.3045,-383.8014"/>
<text text-anchor="middle" x="340.2678" y="-367" font-family="Times,serif" font-size="14.00" fill="#000000">entropy = 0.0</text>
<text text-anchor="middle" x="340.2678" y="-350.2" font-family="Times,serif" font-size="14.00" fill="#000000">samples = 58</text>
<text text-anchor="middle" x="340.2678" y="-333.4" font-family="Times,serif" font-size="14.00" fill="#000000">value = [58, 0]</text>
</g>
<!-- 6&#45;&gt;14 -->
<g id="edge14" class="edge">
<title>6-&gt;14</title>
<path fill="none" stroke="#000000" d="M340.2678,-427.9528C340.2678,-417.0662 340.2678,-405.151 340.2678,-394.1411"/>
<polygon fill="#000000" stroke="#000000" points="343.7679,-393.9258 340.2678,-383.9258 336.7679,-393.9259 343.7679,-393.9258"/>
</g>
<!-- 8 -->
<g id="node9" class="node">
<title>8</title>
<polygon fill="none" stroke="#000000" points="161.9283,-280.9003 56.6073,-280.9003 56.6073,-205.4997 161.9283,-205.4997 161.9283,-280.9003"/>
<text text-anchor="middle" x="109.2678" y="-264.2" font-family="Times,serif" font-size="14.00" fill="#000000">X[1] &lt;= -1.43</text>
<text text-anchor="middle" x="109.2678" y="-247.4" font-family="Times,serif" font-size="14.00" fill="#000000">entropy = 0.713</text>
<text text-anchor="middle" x="109.2678" y="-230.6" font-family="Times,serif" font-size="14.00" fill="#000000">samples = 46</text>
<text text-anchor="middle" x="109.2678" y="-213.8" font-family="Times,serif" font-size="14.00" fill="#000000">value = [37, 9]</text>
</g>
<!-- 7&#45;&gt;8 -->
<g id="edge8" class="edge">
<title>7-&gt;8</title>
<path fill="none" stroke="#000000" d="M182.6883,-316.7528C173.4664,-307.5142 163.505,-297.5349 153.984,-287.9968"/>
<polygon fill="#000000" stroke="#000000" points="156.3505,-285.4133 146.8086,-280.8085 151.3963,-290.3586 156.3505,-285.4133"/>
</g>
<!-- 13 -->
<g id="node14" class="node">
<title>13</title>
<polygon fill="none" stroke="#000000" points="278.3045,-272.6014 180.2311,-272.6014 180.2311,-213.7986 278.3045,-213.7986 278.3045,-272.6014"/>
<text text-anchor="middle" x="229.2678" y="-255.8" font-family="Times,serif" font-size="14.00" fill="#000000">entropy = 0.0</text>
<text text-anchor="middle" x="229.2678" y="-239" font-family="Times,serif" font-size="14.00" fill="#000000">samples = 69</text>
<text text-anchor="middle" x="229.2678" y="-222.2" font-family="Times,serif" font-size="14.00" fill="#000000">value = [0, 69]</text>
</g>
<!-- 7&#45;&gt;13 -->
<g id="edge13" class="edge">
<title>7-&gt;13</title>
<path fill="none" stroke="#000000" d="M223.3148,-316.7528C224.1959,-305.8662 225.1603,-293.951 226.0513,-282.9411"/>
<polygon fill="#000000" stroke="#000000" points="229.5599,-282.9756 226.8781,-272.7258 222.5827,-282.4109 229.5599,-282.9756"/>
</g>
<!-- 9 -->
<g id="node10" class="node">
<title>9</title>
<polygon fill="none" stroke="#000000" points="98.3045,-161.4014 .2311,-161.4014 .2311,-102.5986 98.3045,-102.5986 98.3045,-161.4014"/>
<text text-anchor="middle" x="49.2678" y="-144.6" font-family="Times,serif" font-size="14.00" fill="#000000">entropy = 0.0</text>
<text text-anchor="middle" x="49.2678" y="-127.8" font-family="Times,serif" font-size="14.00" fill="#000000">samples = 24</text>
<text text-anchor="middle" x="49.2678" y="-111" font-family="Times,serif" font-size="14.00" fill="#000000">value = [24, 0]</text>
</g>
<!-- 8&#45;&gt;9 -->
<g id="edge9" class="edge">
<title>8-&gt;9</title>
<path fill="none" stroke="#000000" d="M88.9545,-205.5528C82.8383,-194.2173 76.1202,-181.7665 69.9785,-170.3838"/>
<polygon fill="#000000" stroke="#000000" points="73.0278,-168.6645 65.199,-161.5258 66.8674,-171.9885 73.0278,-168.6645"/>
</g>
<!-- 10 -->
<g id="node11" class="node">
<title>10</title>
<polygon fill="none" stroke="#000000" points="221.9283,-169.7003 116.6073,-169.7003 116.6073,-94.2997 221.9283,-94.2997 221.9283,-169.7003"/>
<text text-anchor="middle" x="169.2678" y="-153" font-family="Times,serif" font-size="14.00" fill="#000000">X[1] &lt;= -0.648</text>
<text text-anchor="middle" x="169.2678" y="-136.2" font-family="Times,serif" font-size="14.00" fill="#000000">entropy = 0.976</text>
<text text-anchor="middle" x="169.2678" y="-119.4" font-family="Times,serif" font-size="14.00" fill="#000000">samples = 22</text>
<text text-anchor="middle" x="169.2678" y="-102.6" font-family="Times,serif" font-size="14.00" fill="#000000">value = [13, 9]</text>
</g>
<!-- 8&#45;&gt;10 -->
<g id="edge10" class="edge">
<title>8-&gt;10</title>
<path fill="none" stroke="#000000" d="M129.5811,-205.5528C134.2726,-196.8577 139.3183,-187.5064 144.1863,-178.4843"/>
<polygon fill="#000000" stroke="#000000" points="147.3071,-180.0711 148.9755,-169.6085 141.1466,-176.7471 147.3071,-180.0711"/>
</g>
<!-- 11 -->
<g id="node12" class="node">
<title>11</title>
<polygon fill="none" stroke="#000000" points="157.8046,-58.6014 66.731,-58.6014 66.731,.2014 157.8046,.2014 157.8046,-58.6014"/>
<text text-anchor="middle" x="112.2678" y="-41.8" font-family="Times,serif" font-size="14.00" fill="#000000">entropy = 0.0</text>
<text text-anchor="middle" x="112.2678" y="-25" font-family="Times,serif" font-size="14.00" fill="#000000">samples = 9</text>
<text text-anchor="middle" x="112.2678" y="-8.2" font-family="Times,serif" font-size="14.00" fill="#000000">value = [0, 9]</text>
</g>
<!-- 10&#45;&gt;11 -->
<g id="edge11" class="edge">
<title>10-&gt;11</title>
<path fill="none" stroke="#000000" d="M148.3668,-94.3048C143.509,-85.5437 138.3334,-76.2096 133.4631,-67.4259"/>
<polygon fill="#000000" stroke="#000000" points="136.4345,-65.567 128.5242,-58.5186 130.3125,-68.9615 136.4345,-65.567"/>
</g>
<!-- 12 -->
<g id="node13" class="node">
<title>12</title>
<polygon fill="none" stroke="#000000" points="274.3045,-58.6014 176.2311,-58.6014 176.2311,.2014 274.3045,.2014 274.3045,-58.6014"/>
<text text-anchor="middle" x="225.2678" y="-41.8" font-family="Times,serif" font-size="14.00" fill="#000000">entropy = 0.0</text>
<text text-anchor="middle" x="225.2678" y="-25" font-family="Times,serif" font-size="14.00" fill="#000000">samples = 13</text>
<text text-anchor="middle" x="225.2678" y="-8.2" font-family="Times,serif" font-size="14.00" fill="#000000">value = [13, 0]</text>
</g>
<!-- 10&#45;&gt;12 -->
<g id="edge12" class="edge">
<title>10-&gt;12</title>
<path fill="none" stroke="#000000" d="M189.8021,-94.3048C194.5747,-85.5437 199.6595,-76.2096 204.4444,-67.4259"/>
<polygon fill="#000000" stroke="#000000" points="207.5863,-68.9745 209.2966,-58.5186 201.4392,-65.6259 207.5863,-68.9745"/>
</g>
<!-- 17 -->
<g id="node18" class="node">
<title>17</title>
<polygon fill="none" stroke="#000000" points="661.8043,-725.7003 542.7313,-725.7003 542.7313,-650.2997 661.8043,-650.2997 661.8043,-725.7003"/>
<text text-anchor="middle" x="602.2678" y="-709" font-family="Times,serif" font-size="14.00" fill="#000000">X[1] &lt;= 1.062</text>
<text text-anchor="middle" x="602.2678" y="-692.2" font-family="Times,serif" font-size="14.00" fill="#000000">entropy = 0.322</text>
<text text-anchor="middle" x="602.2678" y="-675.4" font-family="Times,serif" font-size="14.00" fill="#000000">samples = 1468</text>
<text text-anchor="middle" x="602.2678" y="-658.6" font-family="Times,serif" font-size="14.00" fill="#000000">value = [86, 1382]</text>
</g>
<!-- 16&#45;&gt;17 -->
<g id="edge17" class="edge">
<title>16-&gt;17</title>
<path fill="none" stroke="#000000" d="M602.9292,-761.5528C602.8543,-753.22 602.774,-744.2845 602.696,-735.6137"/>
<polygon fill="#000000" stroke="#000000" points="606.1959,-735.5766 602.606,-725.6085 599.1962,-735.6396 606.1959,-735.5766"/>
</g>
<!-- 40 -->
<g id="node41" class="node">
<title>40</title>
<polygon fill="none" stroke="#000000" points="792.3044,-717.4014 680.2312,-717.4014 680.2312,-658.5986 792.3044,-658.5986 792.3044,-717.4014"/>
<text text-anchor="middle" x="736.2678" y="-700.6" font-family="Times,serif" font-size="14.00" fill="#000000">entropy = 0.0</text>
<text text-anchor="middle" x="736.2678" y="-683.8" font-family="Times,serif" font-size="14.00" fill="#000000">samples = 2108</text>
<text text-anchor="middle" x="736.2678" y="-667" font-family="Times,serif" font-size="14.00" fill="#000000">value = [0, 2108]</text>
</g>
<!-- 16&#45;&gt;40 -->
<g id="edge40" class="edge">
<title>16-&gt;40</title>
<path fill="none" stroke="#000000" d="M648.2955,-761.5528C662.7929,-749.4316 678.8155,-736.0353 693.1705,-724.0332"/>
<polygon fill="#000000" stroke="#000000" points="695.5268,-726.6253 700.9536,-717.5258 691.0368,-721.255 695.5268,-726.6253"/>
</g>
<!-- 18 -->
<g id="node19" class="node">
<title>18</title>
<polygon fill="none" stroke="#000000" points="654.3044,-614.5003 542.2312,-614.5003 542.2312,-539.0997 654.3044,-539.0997 654.3044,-614.5003"/>
<text text-anchor="middle" x="598.2678" y="-597.8" font-family="Times,serif" font-size="14.00" fill="#000000">X[1] &lt;= 0.258</text>
<text text-anchor="middle" x="598.2678" y="-581" font-family="Times,serif" font-size="14.00" fill="#000000">entropy = 0.83</text>
<text text-anchor="middle" x="598.2678" y="-564.2" font-family="Times,serif" font-size="14.00" fill="#000000">samples = 301</text>
<text text-anchor="middle" x="598.2678" y="-547.4" font-family="Times,serif" font-size="14.00" fill="#000000">value = [79, 222]</text>
</g>
<!-- 17&#45;&gt;18 -->
<g id="edge18" class="edge">
<title>17-&gt;18</title>
<path fill="none" stroke="#000000" d="M600.9136,-650.3528C600.6138,-642.02 600.2924,-633.0845 599.9805,-624.4137"/>
<polygon fill="#000000" stroke="#000000" points="603.4779,-624.2762 599.6206,-614.4085 596.4825,-624.5279 603.4779,-624.2762"/>
</g>
<!-- 31 -->
<g id="node32" class="node">
<title>31</title>
<polygon fill="none" stroke="#000000" points="889.3044,-614.5003 777.2312,-614.5003 777.2312,-539.0997 889.3044,-539.0997 889.3044,-614.5003"/>
<text text-anchor="middle" x="833.2678" y="-597.8" font-family="Times,serif" font-size="14.00" fill="#000000">X[1] &lt;= 1.5</text>
<text text-anchor="middle" x="833.2678" y="-581" font-family="Times,serif" font-size="14.00" fill="#000000">entropy = 0.053</text>
<text text-anchor="middle" x="833.2678" y="-564.2" font-family="Times,serif" font-size="14.00" fill="#000000">samples = 1167</text>
<text text-anchor="middle" x="833.2678" y="-547.4" font-family="Times,serif" font-size="14.00" fill="#000000">value = [7, 1160]</text>
</g>
<!-- 17&#45;&gt;31 -->
<g id="edge31" class="edge">
<title>17-&gt;31</title>
<path fill="none" stroke="#000000" d="M661.9673,-655.1243C665.1019,-653.5059 668.2158,-651.9223 671.2678,-650.4 702.5724,-634.7851 737.8817,-618.5828 767.5269,-605.3684"/>
<polygon fill="#000000" stroke="#000000" points="769.2222,-608.4452 776.9407,-601.1875 766.3809,-602.0477 769.2222,-608.4452"/>
</g>
<!-- 19 -->
<g id="node20" class="node">
<title>19</title>
<polygon fill="none" stroke="#000000" points="526.8044,-495.0014 421.7312,-495.0014 421.7312,-436.1986 526.8044,-436.1986 526.8044,-495.0014"/>
<text text-anchor="middle" x="474.2678" y="-478.2" font-family="Times,serif" font-size="14.00" fill="#000000">entropy = 0.0</text>
<text text-anchor="middle" x="474.2678" y="-461.4" font-family="Times,serif" font-size="14.00" fill="#000000">samples = 146</text>
<text text-anchor="middle" x="474.2678" y="-444.6" font-family="Times,serif" font-size="14.00" fill="#000000">value = [0, 146]</text>
</g>
<!-- 18&#45;&gt;19 -->
<g id="edge19" class="edge">
<title>18-&gt;19</title>
<path fill="none" stroke="#000000" d="M556.2871,-539.1528C542.8959,-527.1439 528.1089,-513.8833 514.8209,-501.967"/>
<polygon fill="#000000" stroke="#000000" points="516.9739,-499.1965 507.1923,-495.1258 512.3004,-504.4079 516.9739,-499.1965"/>
</g>
<!-- 20 -->
<g id="node21" class="node">
<title>20</title>
<polygon fill="none" stroke="#000000" points="650.8044,-503.3003 545.7312,-503.3003 545.7312,-427.8997 650.8044,-427.8997 650.8044,-503.3003"/>
<text text-anchor="middle" x="598.2678" y="-486.6" font-family="Times,serif" font-size="14.00" fill="#000000">X[0] &lt;= -0.775</text>
<text text-anchor="middle" x="598.2678" y="-469.8" font-family="Times,serif" font-size="14.00" fill="#000000">entropy = 1.0</text>
<text text-anchor="middle" x="598.2678" y="-453" font-family="Times,serif" font-size="14.00" fill="#000000">samples = 155</text>
<text text-anchor="middle" x="598.2678" y="-436.2" font-family="Times,serif" font-size="14.00" fill="#000000">value = [79, 76]</text>
</g>
<!-- 18&#45;&gt;20 -->
<g id="edge20" class="edge">
<title>18-&gt;20</title>
<path fill="none" stroke="#000000" d="M598.2678,-539.1528C598.2678,-530.82 598.2678,-521.8845 598.2678,-513.2137"/>
<polygon fill="#000000" stroke="#000000" points="601.7679,-513.2084 598.2678,-503.2085 594.7679,-513.2085 601.7679,-513.2084"/>
</g>
<!-- 21 -->
<g id="node22" class="node">
<title>21</title>
<polygon fill="none" stroke="#000000" points="526.9283,-392.1003 421.6073,-392.1003 421.6073,-316.6997 526.9283,-316.6997 526.9283,-392.1003"/>
<text text-anchor="middle" x="474.2678" y="-375.4" font-family="Times,serif" font-size="14.00" fill="#000000">X[0] &lt;= -0.95</text>
<text text-anchor="middle" x="474.2678" y="-358.6" font-family="Times,serif" font-size="14.00" fill="#000000">entropy = 0.491</text>
<text text-anchor="middle" x="474.2678" y="-341.8" font-family="Times,serif" font-size="14.00" fill="#000000">samples = 84</text>
<text text-anchor="middle" x="474.2678" y="-325" font-family="Times,serif" font-size="14.00" fill="#000000">value = [9, 75]</text>
</g>
<!-- 20&#45;&gt;21 -->
<g id="edge21" class="edge">
<title>20-&gt;21</title>
<path fill="none" stroke="#000000" d="M556.2871,-427.9528C545.8841,-418.6237 534.6388,-408.5392 523.9084,-398.9164"/>
<polygon fill="#000000" stroke="#000000" points="525.9869,-396.0792 516.2053,-392.0085 521.3135,-401.2906 525.9869,-396.0792"/>
</g>
<!-- 26 -->
<g id="node27" class="node">
<title>26</title>
<polygon fill="none" stroke="#000000" points="650.9283,-392.1003 545.6073,-392.1003 545.6073,-316.6997 650.9283,-316.6997 650.9283,-392.1003"/>
<text text-anchor="middle" x="598.2678" y="-375.4" font-family="Times,serif" font-size="14.00" fill="#000000">X[1] &lt;= 0.344</text>
<text text-anchor="middle" x="598.2678" y="-358.6" font-family="Times,serif" font-size="14.00" fill="#000000">entropy = 0.107</text>
<text text-anchor="middle" x="598.2678" y="-341.8" font-family="Times,serif" font-size="14.00" fill="#000000">samples = 71</text>
<text text-anchor="middle" x="598.2678" y="-325" font-family="Times,serif" font-size="14.00" fill="#000000">value = [70, 1]</text>
</g>
<!-- 20&#45;&gt;26 -->
<g id="edge26" class="edge">
<title>20-&gt;26</title>
<path fill="none" stroke="#000000" d="M598.2678,-427.9528C598.2678,-419.62 598.2678,-410.6845 598.2678,-402.0137"/>
<polygon fill="#000000" stroke="#000000" points="601.7679,-402.0084 598.2678,-392.0085 594.7679,-402.0085 601.7679,-402.0084"/>
</g>
<!-- 22 -->
<g id="node23" class="node">
<title>22</title>
<polygon fill="none" stroke="#000000" points="403.3045,-272.6014 305.2311,-272.6014 305.2311,-213.7986 403.3045,-213.7986 403.3045,-272.6014"/>
<text text-anchor="middle" x="354.2678" y="-255.8" font-family="Times,serif" font-size="14.00" fill="#000000">entropy = 0.0</text>
<text text-anchor="middle" x="354.2678" y="-239" font-family="Times,serif" font-size="14.00" fill="#000000">samples = 55</text>
<text text-anchor="middle" x="354.2678" y="-222.2" font-family="Times,serif" font-size="14.00" fill="#000000">value = [0, 55]</text>
</g>
<!-- 21&#45;&gt;22 -->
<g id="edge22" class="edge">
<title>21-&gt;22</title>
<path fill="none" stroke="#000000" d="M433.6413,-316.7528C420.682,-304.7439 406.3721,-291.4833 393.5128,-279.567"/>
<polygon fill="#000000" stroke="#000000" points="395.8441,-276.9556 386.1302,-272.7258 391.0862,-282.0901 395.8441,-276.9556"/>
</g>
<!-- 23 -->
<g id="node24" class="node">
<title>23</title>
<polygon fill="none" stroke="#000000" points="526.9283,-280.9003 421.6073,-280.9003 421.6073,-205.4997 526.9283,-205.4997 526.9283,-280.9003"/>
<text text-anchor="middle" x="474.2678" y="-264.2" font-family="Times,serif" font-size="14.00" fill="#000000">X[1] &lt;= 0.702</text>
<text text-anchor="middle" x="474.2678" y="-247.4" font-family="Times,serif" font-size="14.00" fill="#000000">entropy = 0.894</text>
<text text-anchor="middle" x="474.2678" y="-230.6" font-family="Times,serif" font-size="14.00" fill="#000000">samples = 29</text>
<text text-anchor="middle" x="474.2678" y="-213.8" font-family="Times,serif" font-size="14.00" fill="#000000">value = [9, 20]</text>
</g>
<!-- 21&#45;&gt;23 -->
<g id="edge23" class="edge">
<title>21-&gt;23</title>
<path fill="none" stroke="#000000" d="M474.2678,-316.7528C474.2678,-308.42 474.2678,-299.4845 474.2678,-290.8137"/>
<polygon fill="#000000" stroke="#000000" points="477.7679,-290.8084 474.2678,-280.8085 470.7679,-290.8085 477.7679,-290.8084"/>
</g>
<!-- 24 -->
<g id="node25" class="node">
<title>24</title>
<polygon fill="none" stroke="#000000" points="413.3045,-161.4014 315.2311,-161.4014 315.2311,-102.5986 413.3045,-102.5986 413.3045,-161.4014"/>
<text text-anchor="middle" x="364.2678" y="-144.6" font-family="Times,serif" font-size="14.00" fill="#000000">entropy = 0.0</text>
<text text-anchor="middle" x="364.2678" y="-127.8" font-family="Times,serif" font-size="14.00" fill="#000000">samples = 20</text>
<text text-anchor="middle" x="364.2678" y="-111" font-family="Times,serif" font-size="14.00" fill="#000000">value = [0, 20]</text>
</g>
<!-- 23&#45;&gt;24 -->
<g id="edge24" class="edge">
<title>23-&gt;24</title>
<path fill="none" stroke="#000000" d="M437.0268,-205.5528C425.2585,-193.6561 412.2751,-180.531 400.5732,-168.7014"/>
<polygon fill="#000000" stroke="#000000" points="402.9959,-166.1738 393.475,-161.5258 398.0194,-171.0966 402.9959,-166.1738"/>
</g>
<!-- 25 -->
<g id="node26" class="node">
<title>25</title>
<polygon fill="none" stroke="#000000" points="522.8046,-161.4014 431.731,-161.4014 431.731,-102.5986 522.8046,-102.5986 522.8046,-161.4014"/>
<text text-anchor="middle" x="477.2678" y="-144.6" font-family="Times,serif" font-size="14.00" fill="#000000">entropy = 0.0</text>
<text text-anchor="middle" x="477.2678" y="-127.8" font-family="Times,serif" font-size="14.00" fill="#000000">samples = 9</text>
<text text-anchor="middle" x="477.2678" y="-111" font-family="Times,serif" font-size="14.00" fill="#000000">value = [9, 0]</text>
</g>
<!-- 23&#45;&gt;25 -->
<g id="edge25" class="edge">
<title>23-&gt;25</title>
<path fill="none" stroke="#000000" d="M475.2835,-205.5528C475.5772,-194.6662 475.8986,-182.751 476.1956,-171.7411"/>
<polygon fill="#000000" stroke="#000000" points="479.7002,-171.6166 476.4712,-161.5258 472.7027,-171.4278 479.7002,-171.6166"/>
</g>
<!-- 27 -->
<g id="node28" class="node">
<title>27</title>
<polygon fill="none" stroke="#000000" points="646.1461,-280.9003 544.3895,-280.9003 544.3895,-205.4997 646.1461,-205.4997 646.1461,-280.9003"/>
<text text-anchor="middle" x="595.2678" y="-264.2" font-family="Times,serif" font-size="14.00" fill="#000000">X[0] &lt;= -0.721</text>
<text text-anchor="middle" x="595.2678" y="-247.4" font-family="Times,serif" font-size="14.00" fill="#000000">entropy = 1.0</text>
<text text-anchor="middle" x="595.2678" y="-230.6" font-family="Times,serif" font-size="14.00" fill="#000000">samples = 2</text>
<text text-anchor="middle" x="595.2678" y="-213.8" font-family="Times,serif" font-size="14.00" fill="#000000">value = [1, 1]</text>
</g>
<!-- 26&#45;&gt;27 -->
<g id="edge27" class="edge">
<title>26-&gt;27</title>
<path fill="none" stroke="#000000" d="M597.2521,-316.7528C597.0273,-308.42 596.7863,-299.4845 596.5523,-290.8137"/>
<polygon fill="#000000" stroke="#000000" points="600.0509,-290.7104 596.2824,-280.8085 593.0535,-290.8993 600.0509,-290.7104"/>
</g>
<!-- 30 -->
<g id="node31" class="node">
<title>30</title>
<polygon fill="none" stroke="#000000" points="762.3045,-272.6014 664.2311,-272.6014 664.2311,-213.7986 762.3045,-213.7986 762.3045,-272.6014"/>
<text text-anchor="middle" x="713.2678" y="-255.8" font-family="Times,serif" font-size="14.00" fill="#000000">entropy = 0.0</text>
<text text-anchor="middle" x="713.2678" y="-239" font-family="Times,serif" font-size="14.00" fill="#000000">samples = 69</text>
<text text-anchor="middle" x="713.2678" y="-222.2" font-family="Times,serif" font-size="14.00" fill="#000000">value = [69, 0]</text>
</g>
<!-- 26&#45;&gt;30 -->
<g id="edge30" class="edge">
<title>26-&gt;30</title>
<path fill="none" stroke="#000000" d="M637.2016,-316.7528C649.5047,-304.8561 663.0783,-291.731 675.3122,-279.9014"/>
<polygon fill="#000000" stroke="#000000" points="677.9771,-282.1933 682.733,-272.7258 673.1112,-277.1611 677.9771,-282.1933"/>
</g>
<!-- 28 -->
<g id="node29" class="node">
<title>28</title>
<polygon fill="none" stroke="#000000" points="635.8046,-161.4014 544.731,-161.4014 544.731,-102.5986 635.8046,-102.5986 635.8046,-161.4014"/>
<text text-anchor="middle" x="590.2678" y="-144.6" font-family="Times,serif" font-size="14.00" fill="#000000">entropy = 0.0</text>
<text text-anchor="middle" x="590.2678" y="-127.8" font-family="Times,serif" font-size="14.00" fill="#000000">samples = 1</text>
<text text-anchor="middle" x="590.2678" y="-111" font-family="Times,serif" font-size="14.00" fill="#000000">value = [0, 1]</text>
</g>
<!-- 27&#45;&gt;28 -->
<g id="edge28" class="edge">
<title>27-&gt;28</title>
<path fill="none" stroke="#000000" d="M593.575,-205.5528C593.0855,-194.6662 592.5498,-182.751 592.0547,-171.7411"/>
<polygon fill="#000000" stroke="#000000" points="595.5411,-171.3585 591.5954,-161.5258 588.5482,-171.673 595.5411,-171.3585"/>
</g>
<!-- 29 -->
<g id="node30" class="node">
<title>29</title>
<polygon fill="none" stroke="#000000" points="745.8046,-161.4014 654.731,-161.4014 654.731,-102.5986 745.8046,-102.5986 745.8046,-161.4014"/>
<text text-anchor="middle" x="700.2678" y="-144.6" font-family="Times,serif" font-size="14.00" fill="#000000">entropy = 0.0</text>
<text text-anchor="middle" x="700.2678" y="-127.8" font-family="Times,serif" font-size="14.00" fill="#000000">samples = 1</text>
<text text-anchor="middle" x="700.2678" y="-111" font-family="Times,serif" font-size="14.00" fill="#000000">value = [1, 0]</text>
</g>
<!-- 27&#45;&gt;29 -->
<g id="edge29" class="edge">
<title>27-&gt;29</title>
<path fill="none" stroke="#000000" d="M630.816,-205.5528C641.9434,-193.7683 654.2089,-180.7786 665.2962,-169.0366"/>
<polygon fill="#000000" stroke="#000000" points="668.0675,-171.1996 672.3882,-161.5258 662.9779,-166.3938 668.0675,-171.1996"/>
</g>
<!-- 32 -->
<g id="node33" class="node">
<title>32</title>
<polygon fill="none" stroke="#000000" points="885.8044,-503.3003 780.7312,-503.3003 780.7312,-427.8997 885.8044,-427.8997 885.8044,-503.3003"/>
<text text-anchor="middle" x="833.2678" y="-486.6" font-family="Times,serif" font-size="14.00" fill="#000000">X[0] &lt;= -0.824</text>
<text text-anchor="middle" x="833.2678" y="-469.8" font-family="Times,serif" font-size="14.00" fill="#000000">entropy = 0.241</text>
<text text-anchor="middle" x="833.2678" y="-453" font-family="Times,serif" font-size="14.00" fill="#000000">samples = 176</text>
<text text-anchor="middle" x="833.2678" y="-436.2" font-family="Times,serif" font-size="14.00" fill="#000000">value = [7, 169]</text>
</g>
<!-- 31&#45;&gt;32 -->
<g id="edge32" class="edge">
<title>31-&gt;32</title>
<path fill="none" stroke="#000000" d="M833.2678,-539.1528C833.2678,-530.82 833.2678,-521.8845 833.2678,-513.2137"/>
<polygon fill="#000000" stroke="#000000" points="836.7679,-513.2084 833.2678,-503.2085 829.7679,-513.2085 836.7679,-513.2084"/>
</g>
<!-- 39 -->
<g id="node40" class="node">
<title>39</title>
<polygon fill="none" stroke="#000000" points="1009.8044,-495.0014 904.7312,-495.0014 904.7312,-436.1986 1009.8044,-436.1986 1009.8044,-495.0014"/>
<text text-anchor="middle" x="957.2678" y="-478.2" font-family="Times,serif" font-size="14.00" fill="#000000">entropy = 0.0</text>
<text text-anchor="middle" x="957.2678" y="-461.4" font-family="Times,serif" font-size="14.00" fill="#000000">samples = 991</text>
<text text-anchor="middle" x="957.2678" y="-444.6" font-family="Times,serif" font-size="14.00" fill="#000000">value = [0, 991]</text>
</g>
<!-- 31&#45;&gt;39 -->
<g id="edge39" class="edge">
<title>31-&gt;39</title>
<path fill="none" stroke="#000000" d="M875.2485,-539.1528C888.6397,-527.1439 903.4267,-513.8833 916.7147,-501.967"/>
<polygon fill="#000000" stroke="#000000" points="919.2352,-504.4079 924.3433,-495.1258 914.5617,-499.1965 919.2352,-504.4079"/>
</g>
<!-- 33 -->
<g id="node34" class="node">
<title>33</title>
<polygon fill="none" stroke="#000000" points="885.8044,-392.1003 780.7312,-392.1003 780.7312,-316.6997 885.8044,-316.6997 885.8044,-392.1003"/>
<text text-anchor="middle" x="833.2678" y="-375.4" font-family="Times,serif" font-size="14.00" fill="#000000">X[0] &lt;= -0.89</text>
<text text-anchor="middle" x="833.2678" y="-358.6" font-family="Times,serif" font-size="14.00" fill="#000000">entropy = 0.052</text>
<text text-anchor="middle" x="833.2678" y="-341.8" font-family="Times,serif" font-size="14.00" fill="#000000">samples = 170</text>
<text text-anchor="middle" x="833.2678" y="-325" font-family="Times,serif" font-size="14.00" fill="#000000">value = [1, 169]</text>
</g>
<!-- 32&#45;&gt;33 -->
<g id="edge33" class="edge">
<title>32-&gt;33</title>
<path fill="none" stroke="#000000" d="M833.2678,-427.9528C833.2678,-419.62 833.2678,-410.6845 833.2678,-402.0137"/>
<polygon fill="#000000" stroke="#000000" points="836.7679,-402.0084 833.2678,-392.0085 829.7679,-402.0085 836.7679,-402.0084"/>
</g>
<!-- 38 -->
<g id="node39" class="node">
<title>38</title>
<polygon fill="none" stroke="#000000" points="995.8046,-383.8014 904.731,-383.8014 904.731,-324.9986 995.8046,-324.9986 995.8046,-383.8014"/>
<text text-anchor="middle" x="950.2678" y="-367" font-family="Times,serif" font-size="14.00" fill="#000000">entropy = 0.0</text>
<text text-anchor="middle" x="950.2678" y="-350.2" font-family="Times,serif" font-size="14.00" fill="#000000">samples = 6</text>
<text text-anchor="middle" x="950.2678" y="-333.4" font-family="Times,serif" font-size="14.00" fill="#000000">value = [6, 0]</text>
</g>
<!-- 32&#45;&gt;38 -->
<g id="edge38" class="edge">
<title>32-&gt;38</title>
<path fill="none" stroke="#000000" d="M872.8787,-427.9528C885.3958,-416.0561 899.2055,-402.931 911.6521,-391.1014"/>
<polygon fill="#000000" stroke="#000000" points="914.3647,-393.352 919.2019,-383.9258 909.5423,-388.278 914.3647,-393.352"/>
</g>
<!-- 34 -->
<g id="node35" class="node">
<title>34</title>
<polygon fill="none" stroke="#000000" points="885.8044,-272.6014 780.7312,-272.6014 780.7312,-213.7986 885.8044,-213.7986 885.8044,-272.6014"/>
<text text-anchor="middle" x="833.2678" y="-255.8" font-family="Times,serif" font-size="14.00" fill="#000000">entropy = 0.0</text>
<text text-anchor="middle" x="833.2678" y="-239" font-family="Times,serif" font-size="14.00" fill="#000000">samples = 155</text>
<text text-anchor="middle" x="833.2678" y="-222.2" font-family="Times,serif" font-size="14.00" fill="#000000">value = [0, 155]</text>
</g>
<!-- 33&#45;&gt;34 -->
<g id="edge34" class="edge">
<title>33-&gt;34</title>
<path fill="none" stroke="#000000" d="M833.2678,-316.7528C833.2678,-305.8662 833.2678,-293.951 833.2678,-282.9411"/>
<polygon fill="#000000" stroke="#000000" points="836.7679,-282.7258 833.2678,-272.7258 829.7679,-282.7259 836.7679,-282.7258"/>
</g>
<!-- 35 -->
<g id="node36" class="node">
<title>35</title>
<polygon fill="none" stroke="#000000" points="1008.9283,-280.9003 903.6073,-280.9003 903.6073,-205.4997 1008.9283,-205.4997 1008.9283,-280.9003"/>
<text text-anchor="middle" x="956.2678" y="-264.2" font-family="Times,serif" font-size="14.00" fill="#000000">X[1] &lt;= 1.425</text>
<text text-anchor="middle" x="956.2678" y="-247.4" font-family="Times,serif" font-size="14.00" fill="#000000">entropy = 0.353</text>
<text text-anchor="middle" x="956.2678" y="-230.6" font-family="Times,serif" font-size="14.00" fill="#000000">samples = 15</text>
<text text-anchor="middle" x="956.2678" y="-213.8" font-family="Times,serif" font-size="14.00" fill="#000000">value = [1, 14]</text>
</g>
<!-- 33&#45;&gt;35 -->
<g id="edge35" class="edge">
<title>33-&gt;35</title>
<path fill="none" stroke="#000000" d="M874.91,-316.7528C885.229,-307.4237 896.3836,-297.3392 907.0276,-287.7164"/>
<polygon fill="#000000" stroke="#000000" points="909.5978,-290.1111 914.6685,-280.8085 904.9033,-284.9185 909.5978,-290.1111"/>
</g>
<!-- 36 -->
<g id="node37" class="node">
<title>36</title>
<polygon fill="none" stroke="#000000" points="944.8046,-161.4014 853.731,-161.4014 853.731,-102.5986 944.8046,-102.5986 944.8046,-161.4014"/>
<text text-anchor="middle" x="899.2678" y="-144.6" font-family="Times,serif" font-size="14.00" fill="#000000">entropy = 0.0</text>
<text text-anchor="middle" x="899.2678" y="-127.8" font-family="Times,serif" font-size="14.00" fill="#000000">samples = 1</text>
<text text-anchor="middle" x="899.2678" y="-111" font-family="Times,serif" font-size="14.00" fill="#000000">value = [1, 0]</text>
</g>
<!-- 35&#45;&gt;36 -->
<g id="edge36" class="edge">
<title>35-&gt;36</title>
<path fill="none" stroke="#000000" d="M936.9702,-205.5528C931.2173,-194.3295 924.9039,-182.013 919.1164,-170.7222"/>
<polygon fill="#000000" stroke="#000000" points="922.0787,-168.8283 914.4024,-161.5258 915.8494,-172.0214 922.0787,-168.8283"/>
</g>
<!-- 37 -->
<g id="node38" class="node">
<title>37</title>
<polygon fill="none" stroke="#000000" points="1061.3045,-161.4014 963.2311,-161.4014 963.2311,-102.5986 1061.3045,-102.5986 1061.3045,-161.4014"/>
<text text-anchor="middle" x="1012.2678" y="-144.6" font-family="Times,serif" font-size="14.00" fill="#000000">entropy = 0.0</text>
<text text-anchor="middle" x="1012.2678" y="-127.8" font-family="Times,serif" font-size="14.00" fill="#000000">samples = 14</text>
<text text-anchor="middle" x="1012.2678" y="-111" font-family="Times,serif" font-size="14.00" fill="#000000">value = [0, 14]</text>
</g>
<!-- 35&#45;&gt;37 -->
<g id="edge37" class="edge">
<title>35-&gt;37</title>
<path fill="none" stroke="#000000" d="M975.2268,-205.5528C980.8788,-194.3295 987.0814,-182.013 992.7674,-170.7222"/>
<polygon fill="#000000" stroke="#000000" points="996.0268,-172.0315 997.3987,-161.5258 989.7748,-168.883 996.0268,-172.0315"/>
</g>
</g>
</svg>