<?xml version="1.0" encoding="UTF-8" standalone="no"?><!DOCTYPE svg PUBLIC "-//W3C//DTD SVG 1.1//EN" "http://www.w3.org/Graphics/SVG/1.1/DTD/svg11.dtd"><!-- Generated by graphviz version 2.40.1 (20161225.0304)
 --><!-- Title: Tree Pages: 1 --><svg xmlns="http://www.w3.org/2000/svg" xmlns:xlink="http://www.w3.org/1999/xlink" width="238pt" height="178pt" viewBox="0.00 0.00 237.54 177.60">
<g id="graph0" class="graph" transform="scale(1 1) rotate(0) translate(4 173.6)">
<title>Tree</title>
<polygon fill="#ffffff" stroke="transparent" points="-4,4 -4,-173.6 233.5356,-173.6 233.5356,4 -4,4"/>
<!-- 0 -->
<g id="node1" class="node">
<title>0</title>
<polygon fill="none" stroke="#000000" points="174.3043,-169.7003 55.2313,-169.7003 55.2313,-94.2997 174.3043,-94.2997 174.3043,-169.7003"/>
<text text-anchor="middle" x="114.7678" y="-153" font-family="Times,serif" font-size="14.00" fill="#000000">X[1] &lt;= 0.053</text>
<text text-anchor="middle" x="114.7678" y="-136.2" font-family="Times,serif" font-size="14.00" fill="#000000">entropy = 0.998</text>
<text text-anchor="middle" x="114.7678" y="-119.4" font-family="Times,serif" font-size="14.00" fill="#000000">samples = 1620</text>
<text text-anchor="middle" x="114.7678" y="-102.6" font-family="Times,serif" font-size="14.00" fill="#000000">value = [773, 847]</text>
</g>
<!-- 1 -->
<g id="node2" class="node">
<title>1</title>
<polygon fill="none" stroke="#000000" points="105.3044,-58.6014 .2312,-58.6014 .2312,.2014 105.3044,.2014 105.3044,-58.6014"/>
<text text-anchor="middle" x="52.7678" y="-41.8" font-family="Times,serif" font-size="14.00" fill="#000000">entropy = 0.0</text>
<text text-anchor="middle" x="52.7678" y="-25" font-family="Times,serif" font-size="14.00" fill="#000000">samples = 773</text>
<text text-anchor="middle" x="52.7678" y="-8.2" font-family="Times,serif" font-size="14.00" fill="#000000">value = [773, 0]</text>
</g>
<!-- 0&#45;&gt;1 -->
<g id="edge1" class="edge">
<title>0-&gt;1</title>
<path fill="none" stroke="#000000" d="M92.0333,-94.3048C86.6938,-85.4515 81.0013,-76.013 75.6551,-67.1487"/>
<polygon fill="#000000" stroke="#000000" points="78.6119,-65.2742 70.4502,-58.5186 72.6177,-68.8894 78.6119,-65.2742"/>
<text text-anchor="middle" x="64.4423" y="-78.586" font-family="Times,serif" font-size="14.00" fill="#000000">True</text>
</g>
<!-- 2 -->
<g id="node3" class="node">
<title>2</title>
<polygon fill="none" stroke="#000000" points="229.3044,-58.6014 124.2312,-58.6014 124.2312,.2014 229.3044,.2014 229.3044,-58.6014"/>
<text text-anchor="middle" x="176.7678" y="-41.8" font-family="Times,serif" font-size="14.00" fill="#000000">entropy = 0.0</text>
<text text-anchor="middle" x="176.7678" y="-25" font-family="Times,serif" font-size="14.00" fill="#000000">samples = 847</text>
<text text-anchor="middle" x="176.7678" y="-8.2" font-family="Times,serif" font-size="14.00" fill="#000000">value = [0, 847]</text>
</g>
<!-- 0&#45;&gt;2 -->
<g id="edge2" class="edge">
<title>0-&gt;2</title>
<path fill="none" stroke="#000000" d="M137.5023,-94.3048C142.8418,-85.4515 148.5343,-76.013 153.8805,-67.1487"/>
<polygon fill="#000000" stroke="#000000" points="156.9179,-68.8894 159.0854,-58.5186 150.9237,-65.2742 156.9179,-68.8894"/>
<text text-anchor="middle" x="165.0933" y="-78.586" font-family="Times,serif" font-size="14.00" fill="#000000">False</text>
</g>
</g>
</svg>